<svg width="23" height="22" viewBox="0 0 23 22" fill="none" xmlns="http://www.w3.org/2000/svg"><path fill-rule="evenodd" clip-rule="evenodd" d="M.779 18.503a1.953 1.953 0 0 0 0 2.759c.76.761 1.993.761 2.753 0l7.386-7.399 7.552 7.566c.76.762 1.994.762 2.754 0 .76-.761.76-1.997 0-2.758l-7.553-7.566 7.761-7.775c.76-.762.76-1.997 0-2.759a1.945 1.945 0 0 0-2.754 0l-7.76 7.775L3.324.739A1.945 1.945 0 0 0 .57.74a1.953 1.953 0 0 0 0 2.759l7.594 7.607-7.385 7.398z" fill="url(#a)"/><defs><linearGradient id="a" x1="11.001" x2="11.001" y2="22.001" gradientUnits="userSpaceOnUse"><stop stop-color="#4A75F8"/><stop offset="1" stop-color="#94AFFF"/></linearGradient></defs></svg>