<svg width="24" height="15" viewBox="0 0 24 15" fill="none" xmlns="http://www.w3.org/2000/svg"><path d="M12 0C7.415 0 3.256 2.63.188 6.903c-.25.35-.25.839 0 1.189C3.256 12.37 7.415 15 12 15c4.585 0 8.744-2.63 11.812-6.903.25-.35.25-.839 0-1.189C20.744 2.63 16.585 0 12 0zm.329 12.781c-3.044.201-5.558-2.43-5.366-5.626C7.12 4.52 9.157 2.383 11.67 2.22c3.044-.201 5.558 2.43 5.366 5.626-.162 2.63-2.2 4.766-4.708 4.936zm-.152-2.44c-1.64.109-2.995-1.307-2.887-3.026.083-1.421 1.183-2.569 2.538-2.662 1.64-.108 2.995 1.308 2.887 3.027-.088 1.426-1.188 2.574-2.538 2.662z" fill="url(#a)"/><defs><linearGradient id="a" x1="12" x2="12" y2="15" gradientUnits="userSpaceOnUse"><stop stop-color="#4A75F8"/><stop offset="1" stop-color="#94AFFF"/></linearGradient></defs></svg>