<svg width="77" height="68" viewBox="0 0 77 68" fill="none" xmlns="http://www.w3.org/2000/svg">
<path d="M2.29031 45.9025H7.71773V47.3823C7.71773 52.7812 12.1139 57.1729 17.5177 57.1729H22.2824C23.3823 57.1729 24.277 58.067 24.277 59.1652V65.7109C24.277 66.5612 24.9669 67.25 25.8173 67.25C26.6676 67.25 27.3576 66.5612 27.3576 65.7109V59.1652C27.3576 56.3689 25.0809 54.0948 22.2824 54.0948H17.5177C13.8127 54.0948 10.7984 51.0832 10.7984 47.3823V44.3634C10.7984 43.9552 10.636 43.5636 10.3471 43.2751L10.3471 43.275C10.0582 42.9865 9.66653 42.8244 9.25806 42.8244H4.25354L8.27764 26.414L8.2777 26.4137C8.3069 26.2941 8.32186 26.1712 8.32186 26.0478V24.28C8.32199 13.0032 17.5057 3.82812 28.7941 3.82812C34.2628 3.82812 39.4031 5.95522 43.27 9.81848L43.27 9.8185C43.8716 10.4194 44.8465 10.4195 45.4483 9.8185L45.4483 9.81848C46.0499 9.21745 46.0499 8.24279 45.4483 7.64176C41.0001 3.19778 35.0847 0.75 28.7939 0.75C15.8069 0.75 5.24134 11.305 5.24134 24.28V25.862L0.794215 43.9972L0.7942 43.9973C0.681734 44.4564 0.7865 44.9417 1.07862 45.3136C1.37068 45.6854 1.81736 45.9025 2.29031 45.9025Z" fill="url(#paint0_linear)" stroke="url(#paint1_linear)" stroke-width="0.5"/>
<path d="M13.852 25.4362L13.852 25.4362C13.9069 25.5198 13.9541 25.6082 13.9925 25.7003L13.9937 25.7032L13.9937 25.7032C14.0292 25.7915 14.0603 25.8882 14.0796 25.9899C14.0797 25.9904 14.0798 25.9909 14.0798 25.9914L13.8341 26.0375C13.8509 26.1213 13.8599 26.2051 13.8599 26.2889C13.8599 26.374 13.8509 26.4578 13.8341 26.5416L13.852 25.4362ZM13.852 25.4362L13.8492 25.4321C13.7941 25.3518 13.7303 25.2725 13.6584 25.2007C13.5879 25.1302 13.5091 25.0652 13.4233 25.009L13.852 25.4362Z" fill="url(#paint2_linear)" stroke="url(#paint3_linear)" stroke-width="0.5"/>
<path opacity="0.2" fill-rule="evenodd" clip-rule="evenodd" d="M45 47.6533C49.7305 45.4062 53 40.585 53 35C53 29.415 49.7305 24.5938 45 22.3467C46.8184 21.4824 48.8535 21 51 21C58.7324 21 65 27.2676 65 35C65 42.7324 58.7324 49 51 49C48.8535 49 46.8184 48.5176 45 47.6533Z" fill="url(#paint4_linear)"/>
<path d="M65.2504 35.2634C65.2504 27.3064 58.771 20.8337 50.8068 20.8337C42.8427 20.8337 36.3633 27.3064 36.3633 35.2634C36.3633 43.2204 42.8427 49.6931 50.8068 49.6931C58.771 49.6931 65.2504 43.2204 65.2504 35.2634ZM50.8068 46.615C44.5413 46.615 39.4439 41.5222 39.4439 35.2634C39.4439 29.0046 44.5413 23.9119 50.8068 23.9119C57.0723 23.9119 62.1697 29.0046 62.1697 35.2634C62.1697 41.5222 57.0723 46.615 50.8068 46.615Z" fill="url(#paint5_linear)" stroke="url(#paint6_linear)" stroke-width="0.5"/>
<path d="M47.7897 30C45.697 30 44 31.7297 44 33.8636C44 37.7986 49.5 42 51 42C52.5 42 58 37.7986 58 33.8636C58 31.7297 56.303 30 54.2103 30C52.8581 30 51.6708 30.7225 51 31.8093C50.3292 30.7221 49.1423 30 47.7897 30Z" fill="url(#paint7_linear)"/>
<path d="M50.8255 17.9618C51.6758 17.9618 52.3658 17.273 52.3658 16.4228V11.1113C52.3658 10.2611 51.6758 9.57227 50.8255 9.57227C49.9751 9.57227 49.2852 10.2611 49.2852 11.1113V16.4228C49.2852 17.273 49.9751 17.9618 50.8255 17.9618Z" fill="url(#paint8_linear)" stroke="url(#paint9_linear)" stroke-width="0.5"/>
<path d="M42.532 16.2262L42.705 16.0528L44.4814 17.8257C45.0833 18.4264 45.0838 19.401 44.4825 20.0024L42.532 16.2262ZM42.532 16.2262L42.705 16.0528C42.1033 15.4523 41.128 15.4525 40.5268 16.0539L42.532 16.2262ZM42.4809 19.8266L42.3043 20.0035L40.5279 18.2306C39.926 17.6299 39.9255 16.6553 40.5268 16.054L42.4809 19.8266ZM42.4809 19.8266L42.3043 20.0035C42.6051 20.3036 42.9994 20.4537 43.3929 20.4537C43.7869 20.4537 44.1818 20.3032 44.4825 20.0024L42.4809 19.8266Z" fill="url(#paint10_linear)" stroke="url(#paint11_linear)" stroke-width="0.5"/>
<path d="M58.2337 20.487C58.6277 20.487 59.0226 20.3365 59.3233 20.0357C59.3233 20.0357 59.3233 20.0356 59.3233 20.0356L61.0857 18.2731C61.687 17.6718 61.6866 16.6971 61.0846 16.0964C60.4829 15.4959 59.5076 15.4961 58.9065 16.0975C58.9065 16.0975 58.9065 16.0975 58.9064 16.0975L57.144 17.86C56.5427 18.4614 56.5432 19.436 57.1451 20.0368C57.4459 20.3369 57.8403 20.487 58.2337 20.487Z" fill="url(#paint12_linear)" stroke="url(#paint13_linear)" stroke-width="0.5"/>
<path d="M68.2745 33.5003C68.2745 34.3506 68.9633 35.0406 69.8135 35.0406H75.125C75.9753 35.0406 76.6641 34.3506 76.6641 33.5003C76.6641 32.6499 75.9753 31.96 75.125 31.96H69.8135C68.9633 31.96 68.2745 32.6499 68.2745 33.5003Z" fill="url(#paint14_linear)" stroke="url(#paint15_linear)" stroke-width="0.5"/>
<path d="M70.0112 25.2058L70.1846 25.3788L68.4117 27.1552C67.811 27.7571 66.8364 27.7576 66.2351 27.1563L70.0112 25.2058ZM70.0112 25.2058L70.1846 25.3788C70.7851 24.7771 70.7849 23.8018 70.1835 23.2007L70.0112 25.2058ZM66.4109 25.1547L66.2339 24.9781L68.0068 23.2018C68.6075 22.5998 69.5821 22.5994 70.1835 23.2006L66.4109 25.1547ZM66.4109 25.1547L66.2339 24.9781C65.9338 25.2789 65.7837 25.6732 65.7837 26.0667C65.7837 26.4607 65.9342 26.8556 66.235 27.1563L66.4109 25.1547Z" fill="url(#paint16_linear)" stroke="url(#paint17_linear)" stroke-width="0.5"/>
<path d="M65.7491 40.9088C65.7491 41.3028 65.8996 41.6977 66.2004 41.9983C66.2004 41.9983 66.2004 41.9984 66.2005 41.9984L67.9629 43.7608C68.5643 44.3621 69.5389 44.3616 70.1397 43.7597C70.7402 43.158 70.74 42.1826 70.1386 41.5815C70.1386 41.5815 70.1386 41.5815 70.1385 41.5815L68.376 39.8191C67.7747 39.2178 66.8001 39.2182 66.1993 39.8202C65.8992 40.1209 65.7491 40.5153 65.7491 40.9088Z" fill="url(#paint18_linear)" stroke="url(#paint19_linear)" stroke-width="0.5"/>
<path d="M51.9986 53.9779L52.2299 53.883C52.1914 53.7891 52.1438 53.7 52.0885 53.6171C52.0322 53.5311 51.9669 53.4524 51.8966 53.3821C51.826 53.3116 51.7473 53.2466 51.6615 53.1904C51.5787 53.1354 51.4897 53.0878 51.3959 53.0494C51.3031 53.0108 51.2066 52.9818 51.1091 52.962L51.1087 52.9619C50.9097 52.9219 50.7058 52.9219 50.5068 52.9619L50.5064 52.962C50.4089 52.9818 50.3118 53.0109 50.2187 53.0498L50.3149 53.2805M51.9986 53.9779L52.2293 53.8816C52.2682 53.9747 52.2973 54.0716 52.3171 54.1691C52.3371 54.2671 52.348 54.3688 52.348 54.4703C52.348 54.5719 52.337 54.6734 52.3173 54.772L52.317 54.7735L52.317 54.7735C52.2972 54.8695 52.2682 54.9656 52.2299 55.0589L52.2294 55.0602L52.2293 55.0602C52.1911 55.152 52.1437 55.2407 52.0885 55.3235C52.0322 55.4095 51.9669 55.4882 51.8966 55.5585C51.8257 55.6293 51.7474 55.6937 51.6632 55.7503L51.6624 55.7509L51.6623 55.7509C51.5791 55.8063 51.4896 55.8541 51.3953 55.8928L51.3005 55.6614M51.9986 53.9779C52.0309 54.0552 52.0554 54.1364 52.0722 54.2189C52.0889 54.3014 52.098 54.3865 52.098 54.4703C52.098 54.5541 52.0889 54.6392 52.0722 54.723L51.5238 53.3991C51.5947 53.4455 51.6605 53.4996 51.7199 53.5589C51.7793 53.6182 51.8336 53.684 51.8799 53.7549C51.9264 53.8245 51.9664 53.8992 51.9986 53.9779ZM51.3005 55.6614L51.3968 55.8921C51.3037 55.931 51.2067 55.9601 51.1091 55.9799L51.1054 55.9806L51.1054 55.9806C51.0099 55.9985 50.9091 56.0094 50.8078 56.0094C50.7063 56.0094 50.6056 55.9985 50.5101 55.9806L50.5064 55.9799L50.5064 55.9799C50.409 55.9601 50.3124 55.9311 50.2195 55.8925C50.1253 55.8539 50.0362 55.8061 49.9532 55.7509L49.9525 55.7504C49.868 55.6937 49.7897 55.6293 49.7188 55.5585C49.6486 55.4884 49.5839 55.4102 49.5278 55.3249C49.4693 55.2392 49.4233 55.1494 49.3861 55.0602L49.3855 55.0589L49.3855 55.0589C49.3484 54.9686 49.3172 54.8715 49.298 54.7709C49.2782 54.6723 49.2676 54.5711 49.2676 54.4703C49.2676 54.3698 49.2781 54.2687 49.298 54.1709C49.3171 54.0693 49.3484 53.9721 49.3858 53.8823C49.4232 53.7912 49.4693 53.7013 49.5278 53.6157C49.5839 53.5304 49.6486 53.4522 49.7188 53.3821C49.7893 53.3116 49.8681 53.2466 49.9541 53.1904C50.037 53.1353 50.1261 53.0876 50.2201 53.0491L50.3149 53.2805M51.3005 55.6614C51.2233 55.6936 51.142 55.7181 51.0594 55.7349L51.9986 54.964C51.9664 55.0414 51.9264 55.1161 51.8799 55.1857C51.8336 55.2566 51.7793 55.3224 51.7199 55.3817C51.6605 55.441 51.5947 55.4951 51.5238 55.5428C51.4541 55.5892 51.3793 55.6292 51.3005 55.6614ZM50.3149 53.2805C50.3922 53.2483 50.4736 53.2238 50.5562 53.207M50.3149 53.2805C50.2362 53.3127 50.1614 53.3527 50.0918 53.3991C50.0207 53.4455 49.9549 53.4996 49.8955 53.5589C49.8362 53.6182 49.782 53.684 49.7355 53.7549L50.5562 53.207M50.5562 53.207C50.7226 53.1735 50.8929 53.1735 51.0594 53.207H50.5562Z" fill="url(#paint20_linear)" stroke="url(#paint21_linear)" stroke-width="0.5"/>
<path d="M50.8059 58.0488C49.9556 58.0488 49.2656 58.7376 49.2656 59.5879V65.7109C49.2656 66.5612 49.9556 67.25 50.8059 67.25C51.6563 67.25 52.3463 66.5612 52.3463 65.7109V59.5879C52.3463 58.7376 51.6563 58.0488 50.8059 58.0488Z" fill="url(#paint22_linear)" stroke="url(#paint23_linear)" stroke-width="0.5"/>
<path d="M28.7164 6.53205L28.7162 6.53205L28.7937 9.61005V9.36005L28.7942 9.61005L28.7939 9.61005C29.6441 9.60993 30.334 8.92118 30.334 8.07098C30.334 7.22072 29.644 6.53192 28.7937 6.53192L28.7933 6.53192L28.7164 6.53205Z" fill="url(#paint24_linear)" stroke="url(#paint25_linear)" stroke-width="0.5"/>
<path d="M23.3501 7.38104L23.3501 7.38105C19.7804 8.52803 16.5998 10.8381 14.3921 13.8868L14.3921 13.8868C13.8934 14.5756 14.048 15.5378 14.7372 16.036C15.0098 16.2331 15.3259 16.3281 15.639 16.3281C16.1155 16.3281 16.5865 16.1072 16.8878 15.6911C18.7139 13.1695 21.3444 11.2587 24.2931 10.3113L24.2167 10.0733L24.2931 10.3113C25.1029 10.0511 25.5485 9.18423 25.2879 8.3748L25.2879 8.37476C25.0274 7.56589 24.16 7.1209 23.3501 7.38104Z" fill="url(#paint26_linear)" stroke="url(#paint27_linear)" stroke-width="0.5"/>
<defs>
<linearGradient id="paint0_linear" x1="23.3248" y1="1" x2="23.3248" y2="67" gradientUnits="userSpaceOnUse">
<stop stop-color="#4A75F8"/>
<stop offset="1" stop-color="#94AFFF"/>
</linearGradient>
<linearGradient id="paint1_linear" x1="23.3248" y1="1" x2="23.3248" y2="67" gradientUnits="userSpaceOnUse">
<stop stop-color="#4A75F8"/>
<stop offset="1" stop-color="#94AFFF"/>
</linearGradient>
<linearGradient id="paint2_linear" x1="12.5696" y1="25.0005" x2="12.5696" y2="27.578" gradientUnits="userSpaceOnUse">
<stop stop-color="#4A75F8"/>
<stop offset="1" stop-color="#94AFFF"/>
</linearGradient>
<linearGradient id="paint3_linear" x1="12.5696" y1="25.0005" x2="12.5696" y2="27.578" gradientUnits="userSpaceOnUse">
<stop stop-color="#4A75F8"/>
<stop offset="1" stop-color="#94AFFF"/>
</linearGradient>
<linearGradient id="paint4_linear" x1="55" y1="21" x2="55" y2="49" gradientUnits="userSpaceOnUse">
<stop stop-color="#4A75F8"/>
<stop offset="1" stop-color="#94AFFF"/>
</linearGradient>
<linearGradient id="paint5_linear" x1="50.8068" y1="21.0837" x2="50.8068" y2="49.4431" gradientUnits="userSpaceOnUse">
<stop stop-color="#4A75F8"/>
<stop offset="1" stop-color="#94AFFF"/>
</linearGradient>
<linearGradient id="paint6_linear" x1="50.8068" y1="21.0837" x2="50.8068" y2="49.4431" gradientUnits="userSpaceOnUse">
<stop stop-color="#4A75F8"/>
<stop offset="1" stop-color="#94AFFF"/>
</linearGradient>
<linearGradient id="paint7_linear" x1="58.0218" y1="36" x2="43.963" y2="36" gradientUnits="userSpaceOnUse">
<stop stop-color="#FF5B4D"/>
<stop offset="1" stop-color="#FF791A"/>
</linearGradient>
<linearGradient id="paint8_linear" x1="50.8255" y1="9.82227" x2="50.8255" y2="17.7118" gradientUnits="userSpaceOnUse">
<stop stop-color="#4A75F8"/>
<stop offset="1" stop-color="#94AFFF"/>
</linearGradient>
<linearGradient id="paint9_linear" x1="50.8255" y1="9.82227" x2="50.8255" y2="17.7118" gradientUnits="userSpaceOnUse">
<stop stop-color="#4A75F8"/>
<stop offset="1" stop-color="#94AFFF"/>
</linearGradient>
<linearGradient id="paint10_linear" x1="42.5047" y1="15.8527" x2="42.5047" y2="20.2037" gradientUnits="userSpaceOnUse">
<stop stop-color="#4A75F8"/>
<stop offset="1" stop-color="#94AFFF"/>
</linearGradient>
<linearGradient id="paint11_linear" x1="42.5047" y1="15.8527" x2="42.5047" y2="20.2037" gradientUnits="userSpaceOnUse">
<stop stop-color="#4A75F8"/>
<stop offset="1" stop-color="#94AFFF"/>
</linearGradient>
<linearGradient id="paint12_linear" x1="59.1149" y1="15.8962" x2="59.1149" y2="20.237" gradientUnits="userSpaceOnUse">
<stop stop-color="#4A75F8"/>
<stop offset="1" stop-color="#94AFFF"/>
</linearGradient>
<linearGradient id="paint13_linear" x1="59.1149" y1="15.8962" x2="59.1149" y2="20.237" gradientUnits="userSpaceOnUse">
<stop stop-color="#4A75F8"/>
<stop offset="1" stop-color="#94AFFF"/>
</linearGradient>
<linearGradient id="paint14_linear" x1="76.4141" y1="33.5003" x2="68.5245" y2="33.5003" gradientUnits="userSpaceOnUse">
<stop stop-color="#4A75F8"/>
<stop offset="1" stop-color="#94AFFF"/>
</linearGradient>
<linearGradient id="paint15_linear" x1="76.4141" y1="33.5003" x2="68.5245" y2="33.5003" gradientUnits="userSpaceOnUse">
<stop stop-color="#4A75F8"/>
<stop offset="1" stop-color="#94AFFF"/>
</linearGradient>
<linearGradient id="paint16_linear" x1="70.3848" y1="25.1785" x2="66.0337" y2="25.1785" gradientUnits="userSpaceOnUse">
<stop stop-color="#4A75F8"/>
<stop offset="1" stop-color="#94AFFF"/>
</linearGradient>
<linearGradient id="paint17_linear" x1="70.3848" y1="25.1785" x2="66.0337" y2="25.1785" gradientUnits="userSpaceOnUse">
<stop stop-color="#4A75F8"/>
<stop offset="1" stop-color="#94AFFF"/>
</linearGradient>
<linearGradient id="paint18_linear" x1="70.3398" y1="41.7899" x2="65.9991" y2="41.7899" gradientUnits="userSpaceOnUse">
<stop stop-color="#4A75F8"/>
<stop offset="1" stop-color="#94AFFF"/>
</linearGradient>
<linearGradient id="paint19_linear" x1="70.3398" y1="41.7899" x2="65.9991" y2="41.7899" gradientUnits="userSpaceOnUse">
<stop stop-color="#4A75F8"/>
<stop offset="1" stop-color="#94AFFF"/>
</linearGradient>
<linearGradient id="paint20_linear" x1="50.8078" y1="53.1819" x2="50.8078" y2="55.7594" gradientUnits="userSpaceOnUse">
<stop stop-color="#4A75F8"/>
<stop offset="1" stop-color="#94AFFF"/>
</linearGradient>
<linearGradient id="paint21_linear" x1="50.8078" y1="53.1819" x2="50.8078" y2="55.7594" gradientUnits="userSpaceOnUse">
<stop stop-color="#4A75F8"/>
<stop offset="1" stop-color="#94AFFF"/>
</linearGradient>
<linearGradient id="paint22_linear" x1="50.8059" y1="58.2988" x2="50.8059" y2="67" gradientUnits="userSpaceOnUse">
<stop stop-color="#4A75F8"/>
<stop offset="1" stop-color="#94AFFF"/>
</linearGradient>
<linearGradient id="paint23_linear" x1="50.8059" y1="58.2988" x2="50.8059" y2="67" gradientUnits="userSpaceOnUse">
<stop stop-color="#4A75F8"/>
<stop offset="1" stop-color="#94AFFF"/>
</linearGradient>
<linearGradient id="paint24_linear" x1="28.7569" y1="6.78192" x2="28.7569" y2="9.36018" gradientUnits="userSpaceOnUse">
<stop stop-color="#4A75F8"/>
<stop offset="1" stop-color="#94AFFF"/>
</linearGradient>
<linearGradient id="paint25_linear" x1="28.7569" y1="6.78192" x2="28.7569" y2="9.36018" gradientUnits="userSpaceOnUse">
<stop stop-color="#4A75F8"/>
<stop offset="1" stop-color="#94AFFF"/>
</linearGradient>
<linearGradient id="paint26_linear" x1="19.7309" y1="7.55682" x2="19.7309" y2="16.0781" gradientUnits="userSpaceOnUse">
<stop stop-color="#4A75F8"/>
<stop offset="1" stop-color="#94AFFF"/>
</linearGradient>
<linearGradient id="paint27_linear" x1="19.7309" y1="7.55682" x2="19.7309" y2="16.0781" gradientUnits="userSpaceOnUse">
<stop stop-color="#4A75F8"/>
<stop offset="1" stop-color="#94AFFF"/>
</linearGradient>
</defs>
</svg>
