<?xml version="1.0" standalone="no"?>
<!DOCTYPE svg PUBLIC "-//W3C//DTD SVG 20010904//EN"
 "http://www.w3.org/TR/2001/REC-SVG-20010904/DTD/svg10.dtd">
<svg version="1.0" xmlns="http://www.w3.org/2000/svg"
 width="200.000000pt" height="200.000000pt" viewBox="0 0 200.000000 200.000000"
 preserveAspectRatio="xMidYMid meet">
<metadata>
Created by potrace 1.11, written by Peter Selinger 2001-2013
</metadata>
<g transform="translate(0.000000,200.000000) scale(0.100000,-0.100000)"
fill="#000000" stroke="none">
<path d="M27 1423 c-4 -3 -7 -12 -7 -18 0 -25 184 -292 240 -347 l56 -57 -27
-11 c-15 -7 -44 -28 -64 -48 -47 -48 -229 -348 -221 -367 4 -11 24 -15 83 -15
43 0 83 4 88 8 13 9 55 69 55 78 0 3 26 49 57 102 57 98 106 152 155 173 55
23 58 15 58 -161 0 -92 4 -170 10 -181 9 -16 22 -19 80 -19 44 0 72 4 77 13 4
6 8 85 8 175 1 105 5 166 12 173 18 18 61 2 108 -42 40 -37 71 -85 164 -251
20 -36 41 -60 54 -64 36 -8 160 0 164 12 2 6 -33 71 -77 144 -44 74 -80 137
-80 140 0 16 -103 119 -129 130 l-31 12 49 44 c58 52 256 347 247 369 -8 23
-147 21 -174 -2 -11 -10 -52 -71 -92 -136 -40 -65 -91 -133 -114 -153 -40 -34
-81 -52 -93 -40 -3 3 -7 77 -7 163 -1 87 -5 164 -9 171 -11 16 -139 16 -155 0
-8 -8 -12 -62 -12 -176 l0 -164 -22 6 c-13 3 -28 6 -34 6 -24 0 -93 84 -167
202 -43 70 -85 129 -93 132 -21 8 -149 8 -157 -1z"/>
<path d="M1311 1421 c-21 -14 -22 -838 -1 -852 8 -5 55 -8 104 -7 80 3 90 5
105 27 17 24 56 97 168 311 74 140 134 250 137 250 1 0 1 -124 1 -275 0 -151
3 -284 7 -295 6 -17 17 -20 76 -20 39 0 73 5 80 12 17 17 17 829 0 846 -7 7
-44 12 -95 12 -101 0 -109 -6 -170 -126 -23 -44 -50 -96 -61 -115 -10 -19 -52
-97 -92 -174 -40 -77 -79 -148 -86 -158 -9 -15 -12 38 -12 262 1 211 -2 285
-12 296 -14 17 -125 21 -149 6z"/>
</g>
</svg>
