<svg width="66" height="58" viewBox="0 0 66 58" fill="none" xmlns="http://www.w3.org/2000/svg">
<rect x="2.5" y="13" width="54" height="42" fill="white"/>
<path d="M47.7259 10.0066V2.41407L63.8005 18.3161L47.7259 34.3789V26.4542V24.5851L45.8612 24.4587C41.5157 24.1642 32.8427 25.4309 26.1979 36.4716C26.1977 36.4718 26.1976 36.4721 26.1974 36.4723L25.5774 37.4999L25.4149 36.5709V36.512L25.393 36.3654C25.0847 34.2964 24.0799 23.7631 33.4287 16.0171L33.4471 16.0018L33.4652 15.986C33.8983 15.6093 37.8063 12.3201 45.8046 12.0051L47.7259 11.9294V10.0066Z" stroke="url(#paint0_linear)" stroke-width="4"/>
<path opacity="0.2" d="M63.631 16.0132L51.4023 4.33262C51.0336 3.97863 50.542 3.91969 50.0504 4.09662C49.6202 4.27356 49.313 4.6865 49.313 5.15848V10.9987C43.1066 11.2347 39.9726 13.7124 39.4809 14.1253C32.1069 20.0246 29.2531 28.0475 29.4989 29.6403V29.6992L29.7447 31.056C29.8061 31.528 30.2364 31.9409 30.7279 31.9999C30.7893 31.9999 30.8508 31.9999 30.9737 31.9999C31.4039 31.9999 31.7726 31.7639 32.0184 31.41L32.7558 30.2302C37.2417 23.033 46.6093 22.3253 49.313 22.5022V28.5784C49.313 29.0504 49.6202 29.4634 50.0504 29.6403C50.4805 29.8172 51.0336 29.6992 51.4023 29.4043L63.6309 17.6057C63.8767 17.3697 63.9996 17.0748 63.9996 16.7799C63.9996 16.5441 63.8767 16.2492 63.631 16.0132Z" fill="url(#paint1_linear)"/>
<path d="M56.8381 43.2394C55.3959 43.2394 54.2932 44.3359 54.2932 45.7697V52.9392H5.08999V15.8267H20.36C21.8022 15.8267 22.9049 14.7302 22.9049 13.2964C22.9049 11.8626 21.802 10.7661 20.36 10.7661H2.54491C1.10286 10.7659 0 11.8624 0 13.2964V55.4697C0 56.9036 1.10286 58 2.54491 58H56.838C58.2802 58 59.3829 56.9035 59.3829 55.4697V45.7697C59.383 44.3359 58.2802 43.2394 56.8381 43.2394Z" fill="url(#paint2_linear)"/>
<defs>
<linearGradient id="paint0_linear" x1="23.1384" y1="20.017" x2="66.1141" y2="20.017" gradientUnits="userSpaceOnUse">
<stop stop-color="#FF5B4D"/>
<stop offset="1" stop-color="#FF791A"/>
</linearGradient>
<linearGradient id="paint1_linear" x1="29.4306" y1="17.9999" x2="64.0909" y2="17.9999" gradientUnits="userSpaceOnUse">
<stop stop-color="#FF5B4D"/>
<stop offset="1" stop-color="#FF791A"/>
</linearGradient>
<linearGradient id="paint2_linear" x1="29.6914" y1="10.7661" x2="29.6914" y2="58" gradientUnits="userSpaceOnUse">
<stop stop-color="#4A75F8"/>
<stop offset="1" stop-color="#94AFFF"/>
</linearGradient>
</defs>
</svg>
