<svg xmlns="http://www.w3.org/2000/svg" xmlns:xlink="http://www.w3.org/1999/xlink" width="0" height="0" style="position:absolute">
	
		<symbol id="icon-arr-b" viewBox="0 0 30 17">
			<path fill-rule="evenodd" clip-rule="evenodd" d="M4.27 1.334a2.008 2.008 0 0 0-2.804.006c-.801.784-.808 2.08-.007 2.865l10.666 10.448 1.48 1.445a2 2 0 0 0 2.796-.002l1.474-1.443L28.541 4.205c.8-.784.794-2.08-.007-2.864a2.008 2.008 0 0 0-2.805-.007l-10.03 9.82a1 1 0 0 1-1.399 0L4.27 1.333z"></path>
		</symbol>
	
		<symbol id="icon-check" viewBox="0 0 12 9">
			<path fill-rule="evenodd" clip-rule="evenodd" d="M11 1a1 1 0 0 1 0 1.414L5.17 8.246a1 1 0 0 1-1.372.04L1.083 5.873a1 1 0 0 1 1.33-1.494L4.42 6.165 9.586 1A1 1 0 0 1 11 1z"></path>
		</symbol>
	
		<symbol id="icon-close" viewBox="0 0 23 22">
			<path opacity=".5" fill-rule="evenodd" clip-rule="evenodd" d="M.779 18.503a1.953 1.953 0 0 0 0 2.759c.76.761 1.993.761 2.753 0l7.386-7.399 7.552 7.566c.76.762 1.994.762 2.754 0 .76-.761.76-1.997 0-2.758l-7.553-7.566 7.761-7.775c.76-.762.76-1.997 0-2.759a1.945 1.945 0 0 0-2.754 0l-7.76 7.775L3.324.739A1.945 1.945 0 0 0 .57.74a1.953 1.953 0 0 0 0 2.759l7.594 7.607-7.385 7.398z"></path>
		</symbol>
	
		<symbol id="icon-eay" viewBox="0 0 24 15">
			<path d="M12 0C7.415 0 3.256 2.63.188 6.903c-.25.35-.25.839 0 1.189C3.256 12.37 7.415 15 12 15c4.585 0 8.744-2.63 11.812-6.903.25-.35.25-.839 0-1.189C20.744 2.63 16.585 0 12 0zm.329 12.781c-3.044.201-5.558-2.43-5.366-5.626C7.12 4.52 9.157 2.383 11.67 2.22c3.044-.201 5.558 2.43 5.366 5.626-.162 2.63-2.2 4.766-4.708 4.936zm-.152-2.44c-1.64.109-2.995-1.307-2.887-3.026.083-1.421 1.183-2.569 2.538-2.662 1.64-.108 2.995 1.308 2.887 3.027-.088 1.426-1.188 2.574-2.538 2.662z"></path>
		</symbol>
	
		<symbol id="icon-info" viewBox="0 0 66 66">
			<path d="M33 .825c8.594 0 16.674 3.347 22.751 9.424 6.077 6.077 9.424 14.157 9.424 22.751 0 8.594-3.347 16.674-9.424 22.751-6.077 6.077-14.157 9.424-22.751 9.424-8.594 0-16.674-3.347-22.751-9.424C4.172 49.674.825 41.594.825 33c0-8.594 3.347-16.674 9.424-22.751M33 .825l-22.627 9.548M33 .825c-8.594 0-16.674 3.347-22.751 9.424M33 .825l-22.751 9.424m0 0l.124.124m0 0C16.417 4.329 24.453 1 33 1c8.548 0 16.583 3.329 22.627 9.373C61.671 16.417 65 24.453 65 33c0 8.548-3.328 16.583-9.373 22.627C49.583 61.671 41.547 65 33 65c-8.548 0-16.583-3.328-22.627-9.373C4.329 49.583 1 41.547 1 33c0-8.548 3.329-16.583 9.373-22.627zM33 62.275C16.858 62.275 3.725 49.142 3.725 33S16.858 3.725 33 3.725 62.275 16.858 62.275 33 49.142 62.275 33 62.275z"></path><path d="M51.555 46.905a24.619 24.619 0 0 0 3.493-7.76 1.449 1.449 0 0 1 1.763-1.048l-5.256 8.808zm0 0a1.45 1.45 0 0 0 .387 2.014m-.387-2.014l.387 2.014m0 0a1.448 1.448 0 0 0 2.014-.387 27.507 27.507 0 0 0 3.902-8.672m-5.916 9.059l5.916-9.06m0 0a1.45 1.45 0 0 0-1.047-1.762l1.047 1.763zM55.815 33a1.45 1.45 0 0 1 2.9 0c0 .403-.01.81-.027 1.21l-.175-.008a1.275 1.275 0 0 1-1.328 1.22L55.815 33zm0 0c0 .362-.008.727-.024 1.085a1.45 1.45 0 0 0 1.386 1.51L55.815 33zM33 22.435a4.642 4.642 0 0 0-4.638 4.637v22.183A4.642 4.642 0 0 0 33 53.892a4.642 4.642 0 0 0 4.637-4.637V27.072A4.642 4.642 0 0 0 33 22.435zm1.737 26.82a1.74 1.74 0 0 1-1.738 1.738 1.74 1.74 0 0 1-1.737-1.738V27.072c0-.958.78-1.737 1.737-1.737.958 0 1.738.78 1.738 1.737v22.183zM34.736 16.745a1.75 1.75 0 0 0-.508-1.229m.508 1.229l-3.09-1.352c.357-.356.85-.56 1.353-.56s.997.204 1.353.56l-.124.123m.508 1.229c0 .456-.185.905-.507 1.228-.325.323-.773.51-1.23.51-.457 0-.905-.187-1.228-.508a1.756 1.756 0 0 1-.51-1.23c0-.458.187-.906.508-1.228m2.968 1.228l-2.968-1.228m2.459 0a1.755 1.755 0 0 0-1.229-.51c-.456 0-.905.187-1.23.51m2.459 0h-2.459m4.508-2.053A4.673 4.673 0 0 0 33 12.108c-1.22 0-2.414.494-3.28 1.357a4.669 4.669 0 0 0-1.357 3.28c0 1.22.494 2.414 1.359 3.28a4.673 4.673 0 0 0 3.278 1.357c1.22 0 2.414-.494 3.28-1.359a4.673 4.673 0 0 0 1.357-3.278 4.668 4.668 0 0 0-1.359-3.28z"></path>
		</symbol>
	
		<symbol id="icon-sadness" viewBox="0 0 74 74">
			<path d="M2.406 49.962h5.938v1.637c0 5.877 4.78 10.658 10.658 10.658h5.193c1.21 0 2.196.985 2.196 2.196v7.14a1.656 1.656 0 0 0 3.312 0v-7.14a5.515 5.515 0 0 0-5.508-5.509h-5.193c-4.05 0-7.346-3.295-7.346-7.345v-3.293A1.656 1.656 0 0 0 10 46.648H4.517L8.91 28.72a1.66 1.66 0 0 0 .047-.394v-1.929c0-12.314 10.02-22.334 22.334-22.334a22.185 22.185 0 0 1 15.793 6.542 1.656 1.656 0 1 0 2.342-2.342C44.582 3.418 38.14.75 31.29.75 17.15.75 5.645 12.255 5.645 26.396v1.729L.798 47.91a1.656 1.656 0 0 0 1.608 2.05z"></path><path d="M14.78 27.417a1.667 1.667 0 0 0-1.17-.486c-.437 0-.863.177-1.172.486a1.667 1.667 0 0 0-.485 1.17c0 .438.177.865.485 1.173.31.309.736.484 1.171.484.438 0 .863-.175 1.171-.484.31-.31.486-.735.486-1.172 0-.436-.176-.861-.486-1.171zM55.281 50.953c-.914 0-1.656.742-1.656 1.656v18.985a1.656 1.656 0 0 0 3.313 0V52.609c0-.914-.742-1.656-1.657-1.656zM59.581 15.557a12.659 12.659 0 0 0-8-2.854c-2.604 0-5.106.787-7.234 2.276a12.624 12.624 0 0 0-3.904 4.39 6.788 6.788 0 0 0-8.115 6.844 6.75 6.75 0 0 0-3.076 5.68 6.788 6.788 0 0 0 6.78 6.781h28.412c4.856 0 8.806-3.95 8.806-8.807 0-4.856-3.95-8.806-8.806-8.806-.32 0-.638.017-.954.05a12.703 12.703 0 0 0-3.909-5.554zM35.724 26.782a3.472 3.472 0 0 1 4.887-3.89 1.657 1.657 0 0 0 2.266-.897c1.374-3.576 4.873-5.98 8.705-5.98 3.915 0 7.4 2.488 8.738 6.074a8.8 8.8 0 0 0-1.652 1.13 8.81 8.81 0 0 0-1.937 2.394c-.442.8-.152 1.808.649 2.25l.12-.218-.12.218a1.656 1.656 0 0 0 2.25-.648l-.218-.121.219.12a5.51 5.51 0 0 1 3.38-2.654 5.5 5.5 0 0 1 6.927 5.306 5.501 5.501 0 0 1-5.494 5.496H36.032a3.472 3.472 0 0 1-3.467-3.468c0-1.42.849-2.68 2.165-3.214a1.656 1.656 0 0 0 .994-1.898zM37.27 42.895l1.942-1.942a1.656 1.656 0 0 1 2.343 2.342l-1.942 1.942a1.652 1.652 0 0 1-2.343 0v-2.343zm0 0a1.657 1.657 0 0 0 0 2.342v-2.343zM49.142 40.953a1.656 1.656 0 0 0-2.343 0l-4.675 4.675a1.656 1.656 0 0 0 2.342 2.343l4.676-4.676a1.656 1.656 0 0 0 0-2.342zM40.958 49.134a1.667 1.667 0 0 0-1.17-.486c-.439 0-.864.177-1.172.486a1.667 1.667 0 0 0-.485 1.17c0 .438.177.863.485 1.172.308.308.733.485 1.171.485.436 0 .863-.177 1.171-.485.309-.309.485-.735.485-1.171 0-.437-.176-.863-.485-1.171zM52.145 42.895l1.942-1.942a1.656 1.656 0 0 1 2.343 2.342l-1.942 1.942a1.652 1.652 0 0 1-1.172.485c-.423 0-.848-.162-1.17-.485v-2.343zm0 0a1.657 1.657 0 0 0 0 2.342v-2.343zM64.015 40.953a1.656 1.656 0 0 0-2.343 0l-4.675 4.675a1.656 1.656 0 0 0 2.342 2.343l4.676-4.676a1.657 1.657 0 0 0 0-2.342zM31.29 7.057h-.001v3.313-.25.25a1.656 1.656 0 0 0 0-3.313zM27.45 9.053a1.657 1.657 0 0 0-2.083-1.07 19.494 19.494 0 0 0-9.752 7.09 1.656 1.656 0 0 0 2.684 1.94 16.16 16.16 0 0 1 8.082-5.876 1.657 1.657 0 0 0 1.07-2.084z"></path>
		</symbol>
	
		<symbol id="icon-shape" viewBox="0 0 8 14">
			<path fill-rule="evenodd" clip-rule="evenodd" d="M0 2.017L4.973 7 0 11.983 1.514 13.5 8 7 1.514.5 0 2.017z"></path>
		</symbol>
	
		<symbol id="icon-user" viewBox="0 0 10 12">
			<path d="M4.93 5.32c.714 0 1.332-.263 1.837-.78.505-.517.762-1.15.762-1.88 0-.731-.256-1.364-.762-1.88A2.486 2.486 0 0 0 4.93 0c-.714 0-1.332.262-1.837.78a2.605 2.605 0 0 0-.761 1.88c0 .73.256 1.363.761 1.88.505.517 1.124.78 1.837.78zM3.54 1.237c.388-.397.842-.59 1.39-.59.548 0 1.003.193 1.39.59.388.397.576.862.576 1.423 0 .56-.188 1.026-.576 1.423-.387.397-.842.59-1.39.59a1.857 1.857 0 0 1-1.39-.59 1.946 1.946 0 0 1-.576-1.423c0-.56.189-1.026.576-1.423z"></path><path d="M3.54 1.237c.388-.397.842-.59 1.39-.59.548 0 1.003.193 1.39.59.388.397.576.862.576 1.423 0 .56-.188 1.026-.576 1.423-.387.397-.842.59-1.39.59a1.857 1.857 0 0 1-1.39-.59 1.946 1.946 0 0 1-.576-1.423c0-.56.189-1.026.576-1.423zM9.478 9.448a6.72 6.72 0 0 0-.087-.697c-.044-.25-.1-.486-.168-.702a3.508 3.508 0 0 0-.282-.654 2.46 2.46 0 0 0-.424-.567 1.868 1.868 0 0 0-.61-.392 2.066 2.066 0 0 0-.78-.145c-.11 0-.216.046-.422.184a57 57 0 0 1-.44.29 2.492 2.492 0 0 1-.57.257c-.23.076-.464.115-.695.115-.231 0-.466-.039-.697-.115a2.484 2.484 0 0 1-.568-.257 60.284 60.284 0 0 1-.44-.29c-.206-.138-.313-.184-.423-.184-.28 0-.542.049-.779.145a1.866 1.866 0 0 0-.61.392 2.46 2.46 0 0 0-.425.567 3.514 3.514 0 0 0-.281.654 6.672 6.672 0 0 0-.255 1.4c-.015.21-.022.43-.022.652 0 .576.179 1.043.532 1.387.349.34.81.512 1.37.512h5.195c.561 0 1.022-.172 1.37-.512.354-.344.533-.81.533-1.387 0-.223-.007-.442-.022-.653zm-.946 1.571c-.23.225-.536.334-.935.334H2.403c-.399 0-.705-.11-.935-.334-.226-.22-.336-.52-.336-.918 0-.207.007-.411.02-.608a6.015 6.015 0 0 1 .227-1.246c.056-.181.133-.36.229-.533.091-.164.196-.305.312-.418.108-.107.245-.194.406-.259.149-.06.316-.093.498-.098.022.012.061.035.125.078l.446.293c.186.122.427.232.714.327.294.098.593.147.89.147.298 0 .598-.05.891-.147a3.1 3.1 0 0 0 .715-.327c.17-.11.315-.207.445-.293.064-.043.104-.066.126-.078.181.005.349.038.498.098.16.065.297.153.406.259.115.113.22.254.312.419.095.172.173.35.23.531a6.07 6.07 0 0 1 .226 1.247c.013.196.02.4.02.608 0 .398-.11.698-.336.918z"></path><path d="M8.532 11.02c-.23.224-.536.333-.935.333H2.403c-.399 0-.705-.11-.935-.334-.226-.22-.336-.52-.336-.918 0-.207.007-.411.02-.608a6.015 6.015 0 0 1 .227-1.246c.056-.181.133-.36.229-.533.091-.164.196-.305.312-.418.108-.107.245-.194.406-.259.149-.06.316-.093.498-.098.022.012.061.035.125.078l.446.293c.186.122.427.232.714.327.294.098.593.147.89.147.298 0 .598-.05.891-.147a3.1 3.1 0 0 0 .715-.327c.17-.11.315-.207.445-.293.064-.043.104-.066.126-.078.181.005.349.038.498.098.16.065.297.153.406.259.115.113.22.254.312.419.095.172.173.35.23.531a6.07 6.07 0 0 1 .226 1.247c.013.196.02.4.02.608 0 .398-.11.698-.336.918z"></path>
		</symbol>
	
</svg>
