<svg width="87" height="51" viewBox="0 0 87 51" fill="none" xmlns="http://www.w3.org/2000/svg">
<g opacity="0.4">
<path d="M83.2176 39.7779C81.3234 37.472 79.1708 35.4053 77.0891 33.4066C76.3489 32.6958 75.5835 31.9609 74.8457 31.2302C72.7276 29.1299 72.6505 28.3409 74.3275 25.9554C75.4877 24.311 76.7179 22.6644 77.9076 21.072C78.9866 19.6273 80.1026 18.1332 81.172 16.6343L81.3916 16.3262C83.4358 13.4578 85.5498 10.4918 86.6749 6.91383C86.967 5.96986 87.2738 4.58073 86.5724 3.41915C85.8714 2.25855 84.5117 1.90447 83.5498 1.73908C83.0739 1.65724 82.6014 1.64607 82.163 1.64607L68.7763 1.63636L68.6657 1.63538C66.6417 1.63538 65.2776 2.60267 64.496 4.59287C63.7498 6.49442 62.9301 8.51935 61.9947 10.4447C60.1333 14.2786 57.7693 18.6945 54.3484 22.3774L54.2038 22.534C53.7998 22.9743 53.3422 23.4729 53.0076 23.4729C52.9564 23.4729 52.9006 23.4629 52.8374 23.4428C52.1288 23.1628 51.6532 21.4232 51.6747 20.614C51.675 20.6028 51.6752 20.5917 51.6752 20.5805L51.6659 4.88964C51.6659 4.83524 51.662 4.78132 51.6551 4.72741C51.3146 2.17671 50.5602 0.588922 47.71 0.0228269C47.6344 0.00752708 47.557 0 47.4799 0H33.5604C31.2926 0 30.0431 0.934748 28.8685 2.33384C28.5514 2.70783 27.8914 3.48642 28.2185 4.43089C28.5505 5.38943 29.6278 5.5944 29.9787 5.66095C31.7201 5.99706 32.7017 7.07728 32.9797 8.96474C33.4651 12.2423 33.5247 15.7406 33.1675 19.9743C33.0678 21.151 32.8708 22.0597 32.546 22.8361C32.4706 23.0173 32.2031 23.6086 31.9303 23.6089C31.8437 23.6089 31.5929 23.5744 31.1363 23.2553C30.0565 22.5051 29.2665 21.4346 28.3455 20.1123C25.2122 15.6216 22.5826 10.6747 20.3052 4.98532C19.4606 2.89094 17.8832 1.71844 15.8616 1.68395C13.6403 1.64971 11.6263 1.6332 9.70553 1.6332C7.6068 1.6332 5.6611 1.65287 3.76114 1.69294C2.13465 1.72208 1.00962 2.21654 0.417646 3.16367C-0.175284 4.11153 -0.136729 5.35665 0.532353 6.86381C5.88836 18.9393 10.7446 27.7192 16.2788 35.3332C20.1565 40.6609 24.046 44.3487 28.5179 46.9378C33.2292 49.6711 38.5091 51 44.6587 51C45.3558 51 46.0766 50.9828 46.8034 50.9483C50.3768 50.7717 51.7025 49.4601 51.8701 45.9316C51.9499 44.1284 52.1443 42.2373 53.0184 40.6245C53.5701 39.6084 54.0845 39.6084 54.2536 39.6084C54.5793 39.6084 54.983 39.7604 55.4167 40.0453C56.1945 40.5602 56.8614 41.2499 57.4081 41.8524C57.9228 42.4248 58.4316 43.003 58.941 43.5815C60.0402 44.83 61.1767 46.1208 62.364 47.345C64.9627 50.0264 67.8256 51.2057 71.1138 50.9497H83.3872C83.4133 50.9497 83.4396 50.9488 83.4657 50.9471C84.6887 50.8652 85.7479 50.1772 86.3717 49.0596C87.1445 47.6751 87.1289 45.9088 86.33 44.3336C85.4236 42.5525 84.2478 41.0308 83.2176 39.7779Z" fill="white"/>
</g>
</svg>
