<svg width="60" height="60" viewBox="0 0 60 60" fill="none" xmlns="http://www.w3.org/2000/svg">
<path opacity="0.2" d="M51.7485 24.6251V58.2501L55.2494 57.875L54.9369 39.5L59.0619 37.75L59.9994 35.6875L57.8119 30.5V21L52.4369 18.5L53.6244 17V11.6875L51.7485 9L47.8438 9.875C48.3851 10.0833 49.2181 10.4562 49.9688 11.9062C50.7194 13.3562 50.3116 16.6458 49.686 17.8125C46.0193 18.6875 40.1125 20.925 45.3125 20.625C50.5125 20.325 51.7277 22.9792 51.7485 24.6251Z" fill="url(#paint0_linear)"/>
<path opacity="0.2" d="M13.4848 24.6251V58.2501L16.9857 57.875L16.6732 39.5L20.7982 37.75L21.7357 35.6875L19.5482 30.5V21L14.1732 18.5L15.3607 17V11.6875L13.4848 9L9.58008 9.875C10.1215 10.0833 10.9544 10.4562 11.7051 11.9062C12.4558 13.3562 12.0479 16.6458 11.4223 17.8125C7.75566 18.6875 1.84883 20.925 7.04883 20.625C12.2488 20.325 13.464 22.9792 13.4848 24.6251Z" fill="url(#paint1_linear)"/>
<path d="M53.207 17.4741C53.9726 16.5356 54.4327 15.3386 54.4327 14.0358V12.9667C54.4327 9.96234 51.9886 7.51828 48.9843 7.51828C45.9799 7.51828 43.5359 9.96234 43.5359 12.9667V14.0358C43.5359 15.339 43.9963 16.5366 44.7625 17.4751C43.8289 17.7329 42.9405 18.1361 42.1307 18.6688V17.8189C42.1307 14.2829 39.254 11.4061 35.718 11.4061H34.9613C35.8689 10.3013 36.4147 8.88832 36.4147 7.35023V6.39973C36.4145 2.87109 33.5437 0 30.0148 0C26.486 0 23.6151 2.87109 23.6151 6.39984V7.35035C23.6151 8.88844 24.1609 10.3014 25.0685 11.4062H24.3118C20.7758 11.4062 17.8991 14.283 17.8991 17.8191V18.6892C17.0813 18.1466 16.1826 17.7362 15.2375 17.4752C16.0036 16.5366 16.4641 15.3391 16.4641 14.0359V12.9668C16.4641 9.96246 14.0201 7.5184 11.0157 7.5184C8.01139 7.5184 5.56733 9.96246 5.56733 12.9668V14.0359C5.56733 15.3387 6.02741 16.5356 6.79299 17.4742C2.88175 18.5529 0 22.1398 0 26.3892V35.9805C0 38.0186 1.65797 39.6765 3.69597 39.6765H4.67905V58.8281C4.67905 59.4752 5.2037 60 5.85093 60H10.9999C11.0024 60 11.0047 59.9996 11.0072 59.9996C11.0096 59.9996 11.012 60 11.0144 60H16.1634C16.8106 60 17.3353 59.4752 17.3353 58.8281V39.6765H18.3354C20.3666 39.6765 22.02 38.0293 22.0307 36.0005C22.4107 36.1455 22.8077 36.2551 23.218 36.3259V58.8281C23.218 59.4752 23.7426 60 24.3898 60H35.6398C36.287 60 36.8117 59.4752 36.8117 58.8281V47.467C36.8117 46.8199 36.287 46.2952 35.6398 46.2952C34.9926 46.2952 34.4679 46.8199 34.4679 47.467V57.6562H31.1867V37.8874C31.1867 37.2403 30.6621 36.7155 30.0148 36.7155C29.3676 36.7155 28.843 37.2403 28.843 37.8874V57.6562H25.5617V32.7605H34.4679V38.4046C34.4679 39.0517 34.9926 39.5764 35.6398 39.5764C36.287 39.5764 36.8117 39.0517 36.8117 38.4046V36.326C37.2113 36.257 37.5986 36.1518 37.9695 36.0122C37.9866 38.0355 39.6373 39.6765 41.6646 39.6765H42.6647V58.8281C42.6647 59.4752 43.1894 60 43.8366 60H48.9856C48.988 60 48.9904 59.9996 48.9928 59.9996C48.9953 59.9996 48.9976 60 49.0001 60H54.1491C54.7963 60 55.3209 59.4752 55.3209 58.8281V39.6765H56.304C58.342 39.6765 60 38.0186 60 35.9805V26.3892C59.9999 22.1398 57.1181 18.5529 53.207 17.4741ZM7.91096 12.9667C7.91096 11.2548 9.30373 9.86203 11.0156 9.86203C12.7275 9.86203 14.1202 11.2548 14.1202 12.9667V14.0358C14.1202 15.7477 12.7275 17.1404 11.0156 17.1404C9.30373 17.1404 7.91096 15.7477 7.91096 14.0358V12.9667ZM14.9915 57.6562H12.1863V39.6094C12.1863 38.9623 11.6617 38.4375 11.0144 38.4375C10.3672 38.4375 9.84256 38.9623 9.84256 39.6094V40.8398C9.83389 40.8973 9.82791 40.9557 9.82791 41.0156V57.6562H7.0228V35.0384H14.9915V57.6562ZM19.6873 35.9804C19.6875 36.7261 19.0809 37.3328 18.3352 37.3328H17.3352V31.0954C17.3352 30.4482 16.8105 29.9235 16.1633 29.9235C15.5161 29.9235 14.9914 30.4482 14.9914 31.0954V32.6945H7.02268V27.3652C7.02268 26.718 6.49803 26.1933 5.85081 26.1933C5.20358 26.1933 4.67894 26.718 4.67894 27.3652V37.3327H3.69585C2.95031 37.3327 2.34363 36.726 2.34363 35.9804V26.3891C2.34363 22.5817 5.44124 19.4841 9.24865 19.4841H12.7823C14.7259 19.4841 16.5902 20.3101 17.8972 21.7505C17.8977 21.7511 17.8982 21.7515 17.8988 21.7521V30.0083C17.8988 31.7285 18.581 33.2914 19.6873 34.4443V35.9804ZM30.0148 2.34375C32.2513 2.34375 34.0708 4.1632 34.0708 6.39973V7.35023C34.0708 9.58664 32.2513 11.4061 30.0148 11.4061C27.7783 11.4061 25.9589 9.58664 25.9589 7.35023V6.39973C25.9589 4.1632 27.7783 2.34375 30.0148 2.34375ZM39.7868 30.0086C39.7868 31.8734 38.5256 33.448 36.8116 33.9271V17.8191C36.8117 17.1718 36.287 16.6472 35.6398 16.6472C34.9926 16.6472 34.4679 17.172 34.4679 17.8191V30.4167H25.5617V17.8191C25.5617 17.172 25.0371 16.6472 24.3898 16.6472C23.7426 16.6472 23.218 17.172 23.218 17.8191V33.927C21.504 33.4479 20.2427 31.8732 20.2427 30.0084V17.8191C20.2427 15.5754 22.068 13.75 24.3117 13.75H28.8038V16.9523C28.8038 17.5995 29.3285 18.1242 29.9757 18.1242C30.6229 18.1242 31.1476 17.5995 31.1476 16.9523V13.75H35.7179C37.9615 13.75 39.7868 15.5753 39.7868 17.8191V30.0086ZM45.8796 12.9667C45.8796 11.2548 47.2724 9.86203 48.9843 9.86203C50.6962 9.86203 52.0889 11.2548 52.0889 12.9667V14.0358C52.0889 15.7477 50.6962 17.1404 48.9843 17.1404C47.2724 17.1404 45.8796 15.7477 45.8796 14.0358V12.9667ZM52.9771 57.6562H50.172V41.0156C50.172 40.9557 50.166 40.8974 50.1573 40.8398V39.6094C50.1573 38.9623 49.6327 38.4375 48.9855 38.4375C48.3382 38.4375 47.8136 38.9623 47.8136 39.6094V57.6562H45.0084V35.0384H52.9771V57.6562ZM56.3039 37.3328H55.3208V27.3653C55.3208 26.7182 54.7962 26.1934 54.149 26.1934C53.5017 26.1934 52.9771 26.7182 52.9771 27.3653V32.6946H45.0084V31.0955C45.0084 30.4484 44.4837 29.9236 43.8365 29.9236C43.1893 29.9236 42.6646 30.4484 42.6646 31.0955V37.3329H41.6645C40.919 37.3329 40.3123 36.7262 40.3123 35.9807V34.4757C41.4364 33.32 42.1306 31.7442 42.1306 30.0086V21.7213C43.4363 20.2996 45.2874 19.4843 47.2173 19.4843H50.751C54.5584 19.4843 57.656 22.5819 57.656 26.3893V35.9805H57.6561C57.6561 36.7261 57.0496 37.3328 56.3039 37.3328Z" fill="url(#paint2_linear)"/>
<path d="M36.4691 42.0294C36.2512 41.8103 35.9488 41.686 35.6406 41.686C35.3324 41.686 35.0301 41.8104 34.8121 42.0294C34.593 42.2474 34.4688 42.5497 34.4688 42.8579C34.4688 43.1661 34.593 43.4685 34.8121 43.6864C35.0301 43.9043 35.3324 44.0298 35.6406 44.0298C35.9488 44.0298 36.25 43.9044 36.4691 43.6864C36.6871 43.4685 36.8125 43.1661 36.8125 42.8579C36.8125 42.5497 36.6871 42.2474 36.4691 42.0294Z" fill="url(#paint3_linear)"/>
<path d="M30.8031 20.503C30.5852 20.2851 30.284 20.1597 29.9746 20.1597C29.6664 20.1597 29.3641 20.2849 29.1461 20.503C28.9281 20.7209 28.8027 21.0232 28.8027 21.3315C28.8027 21.6397 28.9281 21.9421 29.1461 22.1599C29.3641 22.3779 29.6664 22.5034 29.9746 22.5034C30.284 22.5034 30.5852 22.378 30.8031 22.1599C31.0223 21.9421 31.1465 21.6397 31.1465 21.3315C31.1465 21.0232 31.0223 20.7209 30.8031 20.503Z" fill="url(#paint4_linear)"/>
<path opacity="0.2" d="M35.4375 58.75H32.9375H30.3125V21.5V13.5L31.625 12.1875C31.6667 11.2917 31.725 9 31.625 7C31.525 5 29.0833 2.625 27.875 1.6875L34.625 3L35.4375 7.875L33.1875 11.5625L37.0625 12.5L40.3125 15.625L40.9375 30.4375L39.5625 33.375L35.4375 35.6875V58.75Z" fill="url(#paint5_linear)"/>
<path fill-rule="evenodd" clip-rule="evenodd" d="M35.7188 11.406C38.8105 11.406 41.4004 13.6077 42 16.5264V31.2991C42 33.6562 38.125 36.3259 36.8125 36.3259V38.4045C36.8125 39.0518 36.2871 39.5764 35.6406 39.5764C34.9922 39.5764 34.4688 39.0518 34.4688 38.4045V32.7605H25.5625V57.6562H28.8438V37.8875C28.8438 37.2402 29.3672 36.7156 30.0156 36.7156C30.6621 36.7156 31.1875 37.2402 31.1875 37.8875V57.6562H34.4688V47.467C34.4688 46.8198 34.9922 46.2952 35.6406 46.2952C35.9844 46.2952 36.2949 46.4438 36.5098 46.6804C36.6973 46.8884 36.8125 47.1643 36.8125 47.467V58.8281C36.8125 59.4753 36.2871 60 35.6406 60H24.3906C23.7422 60 23.2188 59.4753 23.2188 58.8281V36.3259C20.5312 36.3259 18 33.1562 18 31.1479V16.6787C18.5391 13.6848 21.1641 11.4062 24.3125 11.4062H25.0684C24.1602 10.3013 23.6152 8.88843 23.6152 7.35034V6.3999C23.6152 2.87109 26.4863 0 30.0156 0C33.543 0 36.4141 2.87109 36.4141 6.39966V7.35034C36.4141 8.88843 35.8691 10.3013 34.9609 11.406H35.7188ZM34.0703 6.39966C34.0703 4.16309 32.252 2.34375 30.0156 2.34375C27.7773 2.34375 25.959 4.16309 25.959 6.39966V7.35034C25.959 9.58667 27.7773 11.406 30.0156 11.406C32.252 11.406 34.0703 9.58667 34.0703 7.35034V6.39966ZM36.8125 33.927C38.5254 33.448 39.7871 31.8733 39.7871 30.0085V17.8191C39.7871 15.5752 37.9609 13.75 35.7188 13.75H31.1484V16.9524C31.1484 17.2271 31.0547 17.4797 30.8945 17.6797C30.6797 17.9504 30.3477 18.1243 29.9766 18.1243C29.3281 18.1243 28.8047 17.5994 28.8047 16.9524V13.75H24.3125C22.0684 13.75 20.2422 15.5754 20.2422 17.8191V30.0085C20.2422 31.8733 21.5039 33.448 23.2188 33.927V17.8191C23.2188 17.1719 23.7422 16.6472 24.3906 16.6472C25.0371 16.6472 25.5625 17.1719 25.5625 17.8191V30.4167H34.4688V17.8191C34.4688 17.1719 34.9922 16.6472 35.6406 16.6472C36.2871 16.6472 36.8125 17.1719 36.8125 17.8191V33.927Z" fill="url(#paint6_linear)"/>
<defs>
<linearGradient id="paint0_linear" x1="51.6315" y1="9" x2="51.6315" y2="58.2501" gradientUnits="userSpaceOnUse">
<stop stop-color="#4A75F8"/>
<stop offset="1" stop-color="#94AFFF"/>
</linearGradient>
<linearGradient id="paint1_linear" x1="13.3678" y1="9" x2="13.3678" y2="58.2501" gradientUnits="userSpaceOnUse">
<stop stop-color="#4A75F8"/>
<stop offset="1" stop-color="#94AFFF"/>
</linearGradient>
<linearGradient id="paint2_linear" x1="30" y1="0" x2="30" y2="60" gradientUnits="userSpaceOnUse">
<stop stop-color="#4A75F8"/>
<stop offset="1" stop-color="#94AFFF"/>
</linearGradient>
<linearGradient id="paint3_linear" x1="34.4651" y1="42.8579" x2="36.8187" y2="42.8579" gradientUnits="userSpaceOnUse">
<stop stop-color="#FF5B4D"/>
<stop offset="1" stop-color="#FF791A"/>
</linearGradient>
<linearGradient id="paint4_linear" x1="28.7991" y1="21.3315" x2="31.1527" y2="21.3315" gradientUnits="userSpaceOnUse">
<stop stop-color="#FF5B4D"/>
<stop offset="1" stop-color="#FF791A"/>
</linearGradient>
<linearGradient id="paint5_linear" x1="27.8547" y1="30.2187" x2="40.972" y2="30.2187" gradientUnits="userSpaceOnUse">
<stop stop-color="#FF5B4D"/>
<stop offset="1" stop-color="#FF791A"/>
</linearGradient>
<linearGradient id="paint6_linear" x1="17.9626" y1="30" x2="42.0635" y2="30" gradientUnits="userSpaceOnUse">
<stop stop-color="#FF5B4D"/>
<stop offset="1" stop-color="#FF791A"/>
</linearGradient>
</defs>
</svg>
