<svg width="16" height="16" viewBox="0 0 16 16" fill="none" xmlns="http://www.w3.org/2000/svg">
<g clip-path="url(#clip0)">
<path d="M13.2903 1.60494H10.4324V0.52175C10.4324 0.233625 10.1988 0 9.91062 0H6.08897C5.80084 0 5.56722 0.233594 5.56722 0.52175V1.60494H2.70925C2.42112 1.60494 2.1875 1.83853 2.1875 2.12669V3.73159C2.1875 4.01972 2.42109 4.25334 2.70925 4.25334H13.2903C13.5784 4.25334 13.812 4.01975 13.812 3.73159V2.12669C13.8121 1.8385 13.5785 1.60494 13.2903 1.60494ZM9.38884 1.60494H6.61072V1.04347H9.38884V1.60494Z" fill="#A3A3A3"/>
<path fill-rule="evenodd" clip-rule="evenodd" d="M2.91211 5.29688L3.34473 15.5005C3.35655 15.7798 3.58645 16.0001 3.86598 16.0001H12.1337C12.4133 16.0001 12.6432 15.7798 12.655 15.5005L13.0876 5.29688H2.91211ZM5.25 7.75C5.25 7.33579 5.58579 7 6 7C6.41421 7 6.75 7.33579 6.75 7.75V13.25C6.75 13.6642 6.41421 14 6 14C5.58579 14 5.25 13.6642 5.25 13.25V7.75ZM10 7C9.58579 7 9.25 7.33579 9.25 7.75V13.25C9.25 13.6642 9.58579 14 10 14C10.4142 14 10.75 13.6642 10.75 13.25V7.75C10.75 7.33579 10.4142 7 10 7Z" fill="#A3A3A3"/>
</g>
<defs>
<clipPath id="clip0">
<rect width="16" height="16" fill="white"/>
</clipPath>
</defs>
</svg>
