<svg width="66" height="66" viewBox="0 0 66 66" fill="none" xmlns="http://www.w3.org/2000/svg">
<path d="M33 0.825C41.594 0.825 49.6743 4.17194 55.7511 10.249C61.8281 16.3257 65.175 24.406 65.175 33C65.175 41.594 61.8281 49.6743 55.7511 55.7511C49.6743 61.8281 41.594 65.175 33 65.175C24.406 65.175 16.3257 61.8281 10.249 55.7511C4.17194 49.6743 0.825 41.594 0.825 33C0.825 24.406 4.17194 16.3257 10.249 10.249C10.249 10.249 10.249 10.249 10.249 10.249M33 0.825L10.3728 10.3728M33 0.825C24.406 0.825 16.3257 4.17193 10.249 10.249M33 0.825L10.249 10.249M10.249 10.249L10.3728 10.3728M10.3728 10.3728C16.4166 4.3285 24.4524 1 33 1C41.5476 1 49.5834 4.3285 55.6274 10.3728C61.6715 16.4166 65 24.4524 65 33C65 41.5476 61.6715 49.5834 55.6274 55.6274C49.5834 61.6715 41.5476 65 33 65C24.4524 65 16.4166 61.6715 10.3728 55.6274C4.3285 49.5834 1 41.5476 1 33C1 24.4524 4.3285 16.4166 10.3728 10.3728ZM33 62.2752C16.8578 62.2752 3.72475 49.1423 3.72475 33C3.72475 16.8576 16.8578 3.72475 33 3.72475C49.1422 3.72475 62.2752 16.8578 62.2752 33C62.2752 49.1422 49.1422 62.2752 33 62.2752Z" fill="url(#paint0_linear)" stroke="url(#paint1_linear)" stroke-width="0.35"/>
<path d="M51.5554 46.9051L51.5554 46.9051C53.1671 44.5279 54.3423 41.9169 55.0484 39.1441C55.2457 38.3679 56.0345 37.899 56.8111 38.0968L51.5554 46.9051ZM51.5554 46.9051C51.106 47.568 51.2792 48.4694 51.9419 48.9188L51.9419 48.9189M51.5554 46.9051L51.9419 48.9189M51.9419 48.9189C52.1909 49.0876 52.4742 49.1688 52.7545 49.1688C53.2185 49.1688 53.6754 48.946 53.9557 48.5322C55.7562 45.8768 57.0693 42.9586 57.8584 39.8597L57.8584 39.8597M51.9419 48.9189L57.8584 39.8597M57.8584 39.8597C58.056 39.0837 57.5874 38.2943 56.8112 38.0968L57.8584 39.8597Z" fill="url(#paint2_linear)" stroke="url(#paint3_linear)" stroke-width="0.35"/>
<path d="M55.8146 33C55.8146 32.1993 56.4638 31.5501 57.2644 31.5501C58.0651 31.5501 58.7143 32.1993 58.7143 33C58.7143 33.4034 58.7056 33.8105 58.6883 34.21C58.6883 34.21 58.6883 34.2101 58.6883 34.2101L58.5134 34.2025C58.4838 34.8871 57.9194 35.4223 57.2407 35.4223C57.2221 35.4223 57.2034 35.422 57.1847 35.4211L55.8146 33ZM55.8146 33C55.8146 33.3619 55.8067 33.7268 55.7912 34.0848C55.7565 34.8848 56.3769 35.5612 57.1768 35.5959L55.8146 33Z" fill="url(#paint4_linear)" stroke="url(#paint5_linear)" stroke-width="0.35"/>
<path d="M32.9992 22.4349C30.4422 22.4349 28.3621 24.515 28.3621 27.072V49.2552C28.3621 51.8123 30.4422 53.8924 32.9992 53.8924C35.5563 53.8924 37.6364 51.8123 37.6364 49.2552V27.072C37.6364 24.5148 35.5563 22.4349 32.9992 22.4349ZM34.7366 49.2552C34.7366 50.2131 33.9571 50.9926 32.9992 50.9926C32.0414 50.9926 31.2619 50.2131 31.2619 49.2552V27.072C31.2619 26.1141 32.0414 25.3346 32.9992 25.3346C33.9571 25.3346 34.7366 26.1141 34.7366 27.072V49.2552Z" fill="url(#paint6_linear)" stroke="url(#paint7_linear)" stroke-width="0.35"/>
<path d="M34.7365 16.7449V16.7448C34.7365 16.2875 34.5509 15.8391 34.2279 15.5161C34.2279 15.5161 34.2279 15.5161 34.2279 15.5161M34.7365 16.7449L31.6455 15.3933C32.0027 15.0371 32.4961 14.8326 32.9992 14.8326C33.5022 14.8326 33.9956 15.0371 34.3516 15.3923L34.2279 15.5161M34.7365 16.7449C34.7366 17.2015 34.5506 17.6502 34.2289 17.9727C33.9043 18.2963 33.4555 18.4822 32.9992 18.4822C32.5425 18.4822 32.0937 18.2962 31.7714 17.9747C31.4478 17.6502 31.2619 17.2012 31.2619 16.745C31.2619 16.2873 31.4476 15.8389 31.7692 15.5172M34.7365 16.7449L31.7692 15.5172M34.2279 15.5161C33.9046 15.1936 33.4557 15.0076 32.9992 15.0076C32.5427 15.0076 32.0937 15.1935 31.7692 15.5172M34.2279 15.5161L31.7692 15.5172M36.2773 13.4645L36.2772 13.4643C35.4129 12.6019 34.2186 12.1077 32.9992 12.1077C31.7797 12.1077 30.5854 12.6019 29.7199 13.4655L29.7197 13.4656C28.8566 14.329 28.3621 15.5235 28.3621 16.7448C28.3621 17.9643 28.8563 19.1586 29.7207 20.0248L29.721 20.0251C30.5853 20.8877 31.7796 21.382 32.9992 21.382C34.2188 21.382 35.4131 20.8876 36.2792 20.0232L36.2795 20.023C37.1421 19.1587 37.6364 17.9644 37.6364 16.7448C37.6364 15.5234 37.1418 14.3288 36.2773 13.4645Z" fill="url(#paint8_linear)" stroke="url(#paint9_linear)" stroke-width="0.35"/>
<defs>
<linearGradient id="paint0_linear" x1="33" y1="1" x2="33" y2="65" gradientUnits="userSpaceOnUse">
<stop stop-color="#4A75F8"/>
<stop offset="1" stop-color="#94AFFF"/>
</linearGradient>
<linearGradient id="paint1_linear" x1="33" y1="1" x2="33" y2="65" gradientUnits="userSpaceOnUse">
<stop stop-color="#4A75F8"/>
<stop offset="1" stop-color="#94AFFF"/>
</linearGradient>
<linearGradient id="paint2_linear" x1="54.6045" y1="38.2266" x2="54.6045" y2="48.9938" gradientUnits="userSpaceOnUse">
<stop stop-color="#4A75F8"/>
<stop offset="1" stop-color="#94AFFF"/>
</linearGradient>
<linearGradient id="paint3_linear" x1="54.6045" y1="38.2266" x2="54.6045" y2="48.9938" gradientUnits="userSpaceOnUse">
<stop stop-color="#4A75F8"/>
<stop offset="1" stop-color="#94AFFF"/>
</linearGradient>
<linearGradient id="paint4_linear" x1="57.2521" y1="31.7251" x2="57.2521" y2="35.4223" gradientUnits="userSpaceOnUse">
<stop stop-color="#4A75F8"/>
<stop offset="1" stop-color="#94AFFF"/>
</linearGradient>
<linearGradient id="paint5_linear" x1="57.2521" y1="31.7251" x2="57.2521" y2="35.4223" gradientUnits="userSpaceOnUse">
<stop stop-color="#4A75F8"/>
<stop offset="1" stop-color="#94AFFF"/>
</linearGradient>
<linearGradient id="paint6_linear" x1="32.9992" y1="22.6099" x2="32.9992" y2="53.7174" gradientUnits="userSpaceOnUse">
<stop stop-color="#4A75F8"/>
<stop offset="1" stop-color="#94AFFF"/>
</linearGradient>
<linearGradient id="paint7_linear" x1="32.9992" y1="22.6099" x2="32.9992" y2="53.7174" gradientUnits="userSpaceOnUse">
<stop stop-color="#4A75F8"/>
<stop offset="1" stop-color="#94AFFF"/>
</linearGradient>
<linearGradient id="paint8_linear" x1="32.9992" y1="12.2827" x2="32.9992" y2="21.207" gradientUnits="userSpaceOnUse">
<stop stop-color="#4A75F8"/>
<stop offset="1" stop-color="#94AFFF"/>
</linearGradient>
<linearGradient id="paint9_linear" x1="32.9992" y1="12.2827" x2="32.9992" y2="21.207" gradientUnits="userSpaceOnUse">
<stop stop-color="#4A75F8"/>
<stop offset="1" stop-color="#94AFFF"/>
</linearGradient>
</defs>
</svg>
