<svg width="10" height="12" viewBox="0 0 10 12" fill="none" xmlns="http://www.w3.org/2000/svg">
<path d="M4.93029 5.31954C5.64417 5.31954 6.26226 5.05743 6.76742 4.54028C7.27243 4.02323 7.52855 3.39057 7.52855 2.65968C7.52855 1.92905 7.27251 1.29631 6.76734 0.779083C6.26218 0.26211 5.64409 0 4.93029 0C4.21632 0 3.59832 0.26211 3.09324 0.779167C2.58815 1.29623 2.33203 1.92896 2.33203 2.65968C2.33203 3.39057 2.58815 4.02331 3.09324 4.54037C3.59849 5.05734 4.21657 5.31954 4.93029 5.31954ZM3.5403 1.23674C3.92786 0.839998 4.38249 0.647144 4.93029 0.647144C5.47801 0.647144 5.93272 0.839998 6.32036 1.23674C6.70792 1.63357 6.89639 2.09907 6.89639 2.65968C6.89639 3.22047 6.70792 3.68588 6.32036 4.08271C5.93272 4.47954 5.47801 4.67239 4.93029 4.67239C4.38266 4.67239 3.92802 4.47945 3.5403 4.08271C3.15266 3.68596 2.96419 3.22047 2.96419 2.65968C2.96419 2.09907 3.15266 1.63357 3.5403 1.23674Z" fill="url(#paint0_linear)"/>
<path d="M3.5403 1.23674C3.92786 0.839998 4.38249 0.647144 4.93029 0.647144C5.47801 0.647144 5.93272 0.839998 6.32036 1.23674C6.70792 1.63357 6.89639 2.09907 6.89639 2.65968C6.89639 3.22047 6.70792 3.68588 6.32036 4.08271C5.93272 4.47954 5.47801 4.67239 4.93029 4.67239C4.38266 4.67239 3.92802 4.47945 3.5403 4.08271C3.15266 3.68596 2.96419 3.22047 2.96419 2.65968C2.96419 2.09907 3.15266 1.63357 3.5403 1.23674Z" fill="url(#paint1_linear)"/>
<path d="M9.47819 9.44849C9.46362 9.23331 9.43416 8.99859 9.39079 8.75071C9.347 8.50099 9.29062 8.26491 9.22314 8.04914C9.15335 7.82613 9.05862 7.60589 8.94134 7.39484C8.81978 7.17578 8.6769 6.98503 8.51658 6.82807C8.34893 6.66386 8.14367 6.53184 7.90631 6.43554C7.66978 6.33974 7.40765 6.29121 7.12725 6.29121C7.01713 6.29121 6.91063 6.33747 6.70496 6.47455C6.57838 6.55905 6.43032 6.65679 6.26506 6.76488C6.12374 6.85705 5.93231 6.94341 5.69586 7.0216C5.46517 7.09802 5.23094 7.13677 4.99967 7.13677C4.76857 7.13677 4.53434 7.09802 4.30348 7.0216C4.06728 6.9435 3.87576 6.85714 3.7347 6.76497C3.571 6.65788 3.42286 6.56015 3.29438 6.47446C3.08888 6.33738 2.98238 6.29113 2.87226 6.29113C2.59178 6.29113 2.32973 6.33974 2.09328 6.43562C1.85608 6.53176 1.65074 6.66378 1.48293 6.82816C1.3226 6.9852 1.17973 7.17587 1.05825 7.39484C0.941136 7.60589 0.846325 7.82604 0.776533 8.04923C0.709128 8.265 0.652752 8.50099 0.608967 8.75071C0.565512 8.99825 0.53613 9.23306 0.521563 9.44875C0.507243 9.65963 0.5 9.87911 0.5 10.1009C0.5 10.6773 0.679006 11.144 1.032 11.4882C1.38063 11.8278 1.84184 12 2.40289 12H7.59711C8.15799 12 8.61921 11.8278 8.96792 11.4882C9.32099 11.1442 9.5 10.6774 9.5 10.1008C9.49992 9.87827 9.49259 9.65879 9.47819 9.44849ZM8.53205 11.0193C8.30169 11.2437 7.99586 11.3529 7.59702 11.3529H2.40289C2.00398 11.3529 1.69815 11.2437 1.46787 11.0194C1.24195 10.7992 1.13216 10.4987 1.13216 10.1009C1.13216 9.89394 1.13882 9.68962 1.15216 9.49348C1.16516 9.30105 1.19174 9.08966 1.23117 8.86505C1.2701 8.64321 1.31964 8.43502 1.37857 8.24655C1.43511 8.06583 1.51223 7.88687 1.60786 7.71449C1.69913 7.5502 1.80415 7.40925 1.92003 7.29567C2.02842 7.18943 2.16504 7.10248 2.32602 7.03727C2.47491 6.97695 2.64223 6.94392 2.82387 6.93895C2.846 6.951 2.88543 6.974 2.94929 7.01663C3.07925 7.10332 3.22904 7.20224 3.39463 7.3105C3.58129 7.43233 3.82177 7.54236 4.10909 7.63732C4.40282 7.73454 4.7024 7.78392 4.99975 7.78392C5.29711 7.78392 5.59677 7.73454 5.89034 7.6374C6.1779 7.54228 6.4183 7.43233 6.60521 7.31033C6.77467 7.19946 6.92026 7.10341 7.05021 7.01663C7.11408 6.97408 7.1535 6.951 7.17564 6.93895C7.35736 6.94392 7.52468 6.97695 7.67365 7.03727C7.83455 7.10248 7.97117 7.18951 8.07956 7.29567C8.19544 7.40916 8.30046 7.55012 8.39173 7.71458C8.48744 7.88687 8.56464 8.06591 8.6211 8.24646C8.68011 8.43519 8.72974 8.64329 8.76859 8.86496C8.80793 9.09 8.83459 9.30147 8.8476 9.49357C8.86101 9.68895 8.86776 9.89335 8.86784 10.1009C8.86776 10.4988 8.75797 10.7992 8.53205 11.0193Z" fill="url(#paint2_linear)"/>
<path d="M8.53205 11.0193C8.30169 11.2437 7.99586 11.3529 7.59702 11.3529H2.40289C2.00398 11.3529 1.69815 11.2437 1.46787 11.0194C1.24195 10.7992 1.13216 10.4987 1.13216 10.1009C1.13216 9.89394 1.13882 9.68962 1.15216 9.49348C1.16516 9.30105 1.19174 9.08966 1.23117 8.86505C1.2701 8.64321 1.31964 8.43502 1.37857 8.24655C1.43511 8.06583 1.51223 7.88687 1.60786 7.71449C1.69913 7.5502 1.80415 7.40925 1.92003 7.29567C2.02842 7.18943 2.16504 7.10248 2.32602 7.03727C2.47491 6.97695 2.64223 6.94392 2.82387 6.93895C2.846 6.951 2.88543 6.974 2.94929 7.01663C3.07925 7.10332 3.22904 7.20224 3.39463 7.3105C3.58129 7.43233 3.82177 7.54236 4.10909 7.63732C4.40282 7.73454 4.7024 7.78392 4.99975 7.78392C5.29711 7.78392 5.59677 7.73454 5.89034 7.6374C6.1779 7.54228 6.4183 7.43233 6.60521 7.31033C6.77467 7.19946 6.92026 7.10341 7.05021 7.01663C7.11408 6.97408 7.1535 6.951 7.17564 6.93895C7.35736 6.94392 7.52468 6.97695 7.67365 7.03727C7.83455 7.10248 7.97117 7.18951 8.07956 7.29567C8.19544 7.40916 8.30046 7.55012 8.39173 7.71458C8.48744 7.88687 8.56464 8.06591 8.6211 8.24646C8.68011 8.43519 8.72974 8.64329 8.76859 8.86496C8.80793 9.09 8.83459 9.30147 8.8476 9.49357C8.86101 9.68895 8.86776 9.89335 8.86784 10.1009C8.86776 10.4988 8.75797 10.7992 8.53205 11.0193Z" fill="url(#paint3_linear)"/>
<defs>
<linearGradient id="paint0_linear" x1="4.93029" y1="0" x2="4.93029" y2="5.31954" gradientUnits="userSpaceOnUse">
<stop stop-color="#4A75F8"/>
<stop offset="1" stop-color="#94AFFF"/>
</linearGradient>
<linearGradient id="paint1_linear" x1="4.93029" y1="0" x2="4.93029" y2="5.31954" gradientUnits="userSpaceOnUse">
<stop stop-color="#4A75F8"/>
<stop offset="1" stop-color="#94AFFF"/>
</linearGradient>
<linearGradient id="paint2_linear" x1="5" y1="6.29113" x2="5" y2="12" gradientUnits="userSpaceOnUse">
<stop stop-color="#4A75F8"/>
<stop offset="1" stop-color="#94AFFF"/>
</linearGradient>
<linearGradient id="paint3_linear" x1="5" y1="6.29113" x2="5" y2="12" gradientUnits="userSpaceOnUse">
<stop stop-color="#4A75F8"/>
<stop offset="1" stop-color="#94AFFF"/>
</linearGradient>
</defs>
</svg>
