<?xml version="1.0" standalone="no"?>
<!DOCTYPE svg PUBLIC "-//W3C//DTD SVG 20010904//EN"
 "http://www.w3.org/TR/2001/REC-SVG-20010904/DTD/svg10.dtd">
<svg version="1.0" xmlns="http://www.w3.org/2000/svg"
 width="130.000000pt" height="130.000000pt" viewBox="0 0 130.000000 130.000000"
 preserveAspectRatio="xMidYMid meet">
<metadata>
Created by potrace 1.11, written by Peter Selinger 2001-2013
</metadata>
<g transform="translate(0.000000,130.000000) scale(0.100000,-0.100000)"
fill="#000000" stroke="none">
<path d="M515 989 c4 -5 0 -6 -8 -3 -8 3 -22 -2 -31 -11 -9 -9 -16 -13 -16 -8
0 4 -4 2 -8 -5 -5 -7 -17 -14 -28 -16 -10 -2 -23 -5 -29 -6 -5 -1 -12 -1 -15
0 -16 7 -62 6 -66 -2 -3 -4 -11 -5 -17 -1 -17 11 -79 11 -99 1 -9 -4 -19 -4
-22 1 -7 10 -66 8 -83 -2 -7 -4 -15 -3 -18 3 -5 8 -11 8 -19 1 -7 -6 -16 -8
-20 -4 -3 4 -13 8 -21 9 -13 2 -15 -43 -14 -322 l0 -323 644 -1 c606 0 644 1
649 17 3 10 5 152 4 316 0 247 -3 297 -14 297 -8 0 -14 4 -14 9 0 8 -46 8 -75
1 -5 -1 -12 -1 -15 0 -14 7 -87 6 -101 -1 -9 -5 -19 -5 -23 -2 -11 11 -65 12
-72 2 -3 -5 -10 -7 -15 -4 -16 11 -79 13 -85 4 -3 -5 -11 -6 -17 -2 -17 10
-130 11 -144 1 -6 -5 -14 -5 -17 1 -4 6 -13 8 -21 5 -8 -4 -18 1 -21 10 -3 9
-10 13 -15 11 -4 -3 -17 3 -27 13 -19 19 -118 29 -107 11z"/>
</g>
</svg>
