<svg width="59" height="59" viewBox="0 0 59 59" fill="none" xmlns="http://www.w3.org/2000/svg">
<path opacity="0.2" d="M11 10.1837C11 5.11167 15.2944 1 20.5918 1H48.4082C53.7056 1 58 5.11167 58 10.1837V36.8163C58 41.8883 53.7056 46 48.4082 46H20.5918C15.2944 46 11 41.8883 11 36.8163V10.1837Z" fill="url(#paint0_linear)"/>
<path d="M12.6327 4.6648H46.3673C50.7678 4.6648 54.3352 8.23216 54.3352 12.6327V23.8469C54.3352 24.9073 55.1948 25.7668 56.2551 25.7668C57.3154 25.7668 58.175 24.9073 58.175 23.8469V12.6327C58.175 6.11135 52.8887 0.825 46.3673 0.825H12.6327C6.11135 0.825 0.825 6.11135 0.825 12.6327V46.3673C0.825 52.8887 6.11135 58.175 12.6327 58.175H46.3673C52.8887 58.175 58.175 52.8887 58.175 46.3673V38.6429C58.175 37.5825 57.3154 36.723 56.2551 36.723C55.1948 36.723 54.3352 37.5825 54.3352 38.6429V46.3673C54.3352 50.7678 50.7678 54.3352 46.3673 54.3352H12.6327C8.23216 54.3352 4.6648 50.7678 4.6648 46.3673V12.6327C4.6648 8.23216 8.23216 4.6648 12.6327 4.6648ZM56.2551 33.7464C57.3154 33.7464 58.175 32.8869 58.175 31.8265V30.6633C58.175 29.6029 57.3154 28.7434 56.2551 28.7434C55.1948 28.7434 54.3352 29.6029 54.3352 30.6633V31.8265C54.3352 32.8869 55.1948 33.7464 56.2551 33.7464Z" fill="url(#paint1_linear)" stroke="url(#paint2_linear)" stroke-width="0.35"/>
<path fill-rule="evenodd" clip-rule="evenodd" d="M19.9072 28.256L25.9756 34.216L43.7471 16.7599C44.6143 15.9094 46.0322 15.9103 46.8975 16.759C47.7432 17.5891 47.7412 18.9182 46.8975 19.7463L27.5498 38.7502C27.1201 39.1721 26.5635 39.3879 25.9736 39.3879C25.3857 39.3879 24.8291 39.1721 24.3994 38.7502L16.7568 31.2433C15.9111 30.4123 15.9131 29.0842 16.7549 28.257C17.6221 27.4055 19.042 27.4064 19.9072 28.256Z" fill="url(#paint3_linear)"/>
<defs>
<linearGradient id="paint0_linear" x1="34.5" y1="1" x2="34.5" y2="46" gradientUnits="userSpaceOnUse">
<stop stop-color="#4A75F8"/>
<stop offset="1" stop-color="#94AFFF"/>
</linearGradient>
<linearGradient id="paint1_linear" x1="29.5" y1="1" x2="29.5" y2="58" gradientUnits="userSpaceOnUse">
<stop stop-color="#4A75F8"/>
<stop offset="1" stop-color="#94AFFF"/>
</linearGradient>
<linearGradient id="paint2_linear" x1="29.5" y1="1" x2="29.5" y2="58" gradientUnits="userSpaceOnUse">
<stop stop-color="#4A75F8"/>
<stop offset="1" stop-color="#94AFFF"/>
</linearGradient>
<linearGradient id="paint3_linear" x1="16.0741" y1="27.7551" x2="47.6141" y2="27.7551" gradientUnits="userSpaceOnUse">
<stop stop-color="#FF5B4D"/>
<stop offset="1" stop-color="#FF791A"/>
</linearGradient>
</defs>
</svg>
