<svg width="52" height="66" viewBox="0 0 52 66" fill="none" xmlns="http://www.w3.org/2000/svg">
<path opacity="0.1" d="M44.875 6H48.8125C50.0206 6 51 8.33768 51 11.2212V59.7788C51 62.6623 50.0206 65 48.8125 65H32.1875C30.9794 65 30 62.6623 30 59.7788V11.2212C30 8.33768 30.9794 6 32.1875 6H35.9245H44.875Z" fill="url(#paint0_linear)"/>
<path opacity="0.2" d="M31.0811 5.0918C30.4873 2.90091 28.4887 1.28906 26.113 1.28906H25.8871C23.5115 1.28906 21.5128 2.90091 20.9191 5.0918H17.9234C16.6972 5.0918 15.7031 6.08734 15.7031 7.31543V11.6016H36.2972V7.31543C36.2972 6.08734 35.3031 5.0918 34.0769 5.0918H31.0811Z" fill="url(#paint1_linear)"/>
<path d="M45.5644 5.15625H36.8403C36.1978 4.33331 35.1983 3.80273 34.0767 3.80273H31.9831C30.9587 1.52187 28.6698 0 26.1129 0H25.887C23.3301 0 21.0413 1.52187 20.0169 3.80273H17.9233C16.8017 3.80273 15.8022 4.33331 15.1597 5.15625H6.43564C2.88703 5.15625 0 8.04762 0 11.6016V59.5547C0 63.1086 2.88703 66 6.43564 66H45.5644C49.113 66 52 63.1086 52 59.5547V42.7888C52 42.0768 51.4238 41.4997 50.7129 41.4997C50.002 41.4997 49.4257 42.0768 49.4257 42.7888V59.5547C49.4257 61.6871 47.6935 63.4219 45.5644 63.4219H6.43564C4.30648 63.4219 2.57426 61.6871 2.57426 59.5547V11.6016C2.57426 9.4692 4.30648 7.73438 6.43564 7.73438H14.4158V10.3125H7.72277C6.30333 10.3125 5.14852 11.469 5.14852 12.8906V58.2656C5.14852 59.6872 6.30333 60.8438 7.72277 60.8438H44.2772C45.6967 60.8438 46.8515 59.6872 46.8515 58.2656V12.8906C46.8515 11.469 45.6967 10.3125 44.2772 10.3125H37.5842V7.73438H45.5644C47.6935 7.73438 49.4257 9.4692 49.4257 11.6016V31.9819C49.4257 32.6938 50.002 33.271 50.7129 33.271C51.4238 33.271 52 32.6938 52 31.9819V11.6016C52 8.04762 49.113 5.15625 45.5644 5.15625ZM44.2789 58.2656C44.2789 58.2656 44.2784 58.2656 44.2772 58.2656H7.72277V12.8906H15.703H36.297H44.2772L44.2789 58.2656ZM16.9901 10.3125V7.31543C16.9901 6.80006 17.4087 6.38086 17.9233 6.38086H20.9191C21.5001 6.38086 22.009 5.99105 22.1613 5.42953C22.6163 3.75066 24.1483 2.57812 25.8871 2.57812H26.113C27.8517 2.57812 29.3839 3.75066 29.8389 5.42953C29.9911 5.99105 30.5001 6.38086 31.0811 6.38086H34.0769C34.5915 6.38086 35.01 6.80006 35.01 7.31543V10.3125H16.9901Z" fill="url(#paint2_linear)"/>
<path d="M50.7129 36.2098C50.3744 36.2098 50.0423 36.3477 49.8029 36.5875C49.5635 36.8272 49.4258 37.1598 49.4258 37.4988C49.4258 37.8392 49.5635 38.1704 49.8029 38.4102C50.0423 38.6513 50.3744 38.7879 50.7129 38.7879C51.0514 38.7879 51.3835 38.6513 51.6229 38.4102C51.8623 38.1704 52 37.8392 52 37.4988C52 37.1598 51.8623 36.8285 51.6229 36.5875C51.3835 36.3477 51.0514 36.2098 50.7129 36.2098Z" fill="url(#paint3_linear)"/>
<path d="M26.9004 25.2656C27.2389 25.2656 27.571 25.1277 27.8104 24.8879C28.0498 24.6482 28.1875 24.3156 28.1875 23.9766C28.1875 23.6375 28.0498 23.305 27.8104 23.0652C27.571 22.8254 27.2389 22.6875 26.9004 22.6875C26.5619 22.6875 26.2298 22.8254 25.9904 23.0652C25.751 23.305 25.6133 23.6375 25.6133 23.9766C25.6133 24.3156 25.751 24.6482 25.9904 24.8879C26.2298 25.1277 26.5619 25.2656 26.9004 25.2656Z" fill="url(#paint4_linear)"/>
<path d="M31.2773 23.9766C31.2773 24.6885 31.8536 25.2656 32.5645 25.2656H40.2208C40.9317 25.2656 41.508 24.6885 41.508 23.9766C41.508 23.2646 40.9317 22.6875 40.2208 22.6875H32.5645C31.8536 22.6875 31.2773 23.2646 31.2773 23.9766Z" fill="url(#paint5_linear)"/>
<path d="M40.2201 36.6094H26.9004C26.1895 36.6094 25.6133 37.1865 25.6133 37.8984C25.6133 38.6104 26.1895 39.1875 26.9004 39.1875H40.2201C40.931 39.1875 41.5073 38.6104 41.5073 37.8984C41.5073 37.1865 40.931 36.6094 40.2201 36.6094Z" fill="url(#paint6_linear)"/>
<path d="M40.2201 50.5312H26.9004C26.1895 50.5312 25.6133 51.1084 25.6133 51.8203C25.6133 52.5323 26.1895 53.1094 26.9004 53.1094H40.2201C40.931 53.1094 41.5073 52.5323 41.5073 51.8203C41.5073 51.1084 40.931 50.5312 40.2201 50.5312Z" fill="url(#paint7_linear)"/>
<path d="M12.6133 25.2656H18.7915C19.5024 25.2656 20.0786 24.6885 20.0786 23.9766C20.0786 23.2646 19.5024 22.6875 18.7915 22.6875H13.9004V17.7891C13.9004 17.0771 13.3242 16.5 12.6133 16.5C11.9024 16.5 11.3262 17.0771 11.3262 17.7891V23.9766C11.3262 24.6885 11.9024 25.2656 12.6133 25.2656Z" fill="url(#paint8_linear)"/>
<path d="M19.6772 16.4631L17.9026 18.2405L17.7521 18.0898C17.2495 17.5864 16.4345 17.5864 15.9317 18.0898C15.429 18.5932 15.4291 19.4094 15.9317 19.9129L16.9923 20.9751C17.2437 21.2268 17.5731 21.3526 17.9024 21.3526C18.2318 21.3526 18.5613 21.2268 18.8126 20.9751L21.4974 18.2862C22 17.7828 22 16.9666 21.4974 16.4631C20.9949 15.9597 20.1799 15.9597 19.6772 16.4631Z" fill="url(#paint9_linear)"/>
<path fill-rule="evenodd" clip-rule="evenodd" d="M18.791 39.1504H12.6133C11.9023 39.1504 11.3262 38.5732 11.3262 37.8613V31.6738C11.3262 30.9619 11.9023 30.3848 12.6133 30.3848H18.793C19.5039 30.3848 20.0801 30.9619 20.0801 31.6738L20.0781 37.8613C20.0801 38.2422 19.916 38.584 19.6523 38.8203C19.6387 38.833 19.623 38.8447 19.6094 38.8564C19.3906 39.0371 19.1133 39.1465 18.8086 39.1504C18.8027 39.1504 18.7969 39.1504 18.791 39.1504ZM17.5059 36.5723H13.9004V32.9629H17.5059V36.5723Z" fill="url(#paint10_linear)"/>
<path d="M18.7915 50.5312H13.9004V45.6328C13.9004 44.9209 13.3242 44.3438 12.6133 44.3438C11.9024 44.3438 11.3262 44.9209 11.3262 45.6328V51.8203C11.3262 52.5323 11.9024 53.1094 12.6133 53.1094H18.7915C19.5024 53.1094 20.0786 52.5323 20.0786 51.8203C20.0786 51.1084 19.5024 50.5312 18.7915 50.5312Z" fill="url(#paint11_linear)"/>
<path d="M19.6772 44.3069L17.9026 46.0842L17.7521 45.9335C17.2495 45.4301 16.4345 45.4301 15.9317 45.9335C15.429 46.4369 15.4291 47.2531 15.9317 47.7566L16.9923 48.8188C17.2437 49.0706 17.5731 49.1964 17.9024 49.1964C18.2318 49.1964 18.5613 49.0706 18.8126 48.8188L21.4974 46.13C22 45.6266 22 44.8104 21.4974 44.3069C20.9949 43.8035 20.1799 43.8035 19.6772 44.3069Z" fill="url(#paint12_linear)"/>
<defs>
<linearGradient id="paint0_linear" x1="40.5" y1="6" x2="40.5" y2="65" gradientUnits="userSpaceOnUse">
<stop stop-color="#4A75F8"/>
<stop offset="1" stop-color="#94AFFF"/>
</linearGradient>
<linearGradient id="paint1_linear" x1="26.0002" y1="1.28906" x2="26.0002" y2="11.6016" gradientUnits="userSpaceOnUse">
<stop stop-color="#4A75F8"/>
<stop offset="1" stop-color="#94AFFF"/>
</linearGradient>
<linearGradient id="paint2_linear" x1="26" y1="0" x2="26" y2="66" gradientUnits="userSpaceOnUse">
<stop stop-color="#4A75F8"/>
<stop offset="1" stop-color="#94AFFF"/>
</linearGradient>
<linearGradient id="paint3_linear" x1="50.7129" y1="36.2098" x2="50.7129" y2="38.7879" gradientUnits="userSpaceOnUse">
<stop stop-color="#4A75F8"/>
<stop offset="1" stop-color="#94AFFF"/>
</linearGradient>
<linearGradient id="paint4_linear" x1="26.9004" y1="22.6875" x2="26.9004" y2="25.2656" gradientUnits="userSpaceOnUse">
<stop stop-color="#4A75F8"/>
<stop offset="1" stop-color="#94AFFF"/>
</linearGradient>
<linearGradient id="paint5_linear" x1="36.3927" y1="22.6875" x2="36.3927" y2="25.2656" gradientUnits="userSpaceOnUse">
<stop stop-color="#4A75F8"/>
<stop offset="1" stop-color="#94AFFF"/>
</linearGradient>
<linearGradient id="paint6_linear" x1="33.5603" y1="36.6094" x2="33.5603" y2="39.1875" gradientUnits="userSpaceOnUse">
<stop stop-color="#4A75F8"/>
<stop offset="1" stop-color="#94AFFF"/>
</linearGradient>
<linearGradient id="paint7_linear" x1="33.5603" y1="50.5312" x2="33.5603" y2="53.1094" gradientUnits="userSpaceOnUse">
<stop stop-color="#4A75F8"/>
<stop offset="1" stop-color="#94AFFF"/>
</linearGradient>
<linearGradient id="paint8_linear" x1="15.7024" y1="16.5" x2="15.7024" y2="25.2656" gradientUnits="userSpaceOnUse">
<stop stop-color="#4A75F8"/>
<stop offset="1" stop-color="#94AFFF"/>
</linearGradient>
<linearGradient id="paint9_linear" x1="18.7145" y1="16.0856" x2="18.7145" y2="21.3526" gradientUnits="userSpaceOnUse">
<stop stop-color="#4A75F8"/>
<stop offset="1" stop-color="#94AFFF"/>
</linearGradient>
<linearGradient id="paint10_linear" x1="11.3125" y1="34.7676" x2="20.1032" y2="34.7676" gradientUnits="userSpaceOnUse">
<stop stop-color="#FF5B4D"/>
<stop offset="1" stop-color="#FF791A"/>
</linearGradient>
<linearGradient id="paint11_linear" x1="15.7024" y1="44.3438" x2="15.7024" y2="53.1094" gradientUnits="userSpaceOnUse">
<stop stop-color="#4A75F8"/>
<stop offset="1" stop-color="#94AFFF"/>
</linearGradient>
<linearGradient id="paint12_linear" x1="18.7145" y1="43.9293" x2="18.7145" y2="49.1964" gradientUnits="userSpaceOnUse">
<stop stop-color="#4A75F8"/>
<stop offset="1" stop-color="#94AFFF"/>
</linearGradient>
</defs>
</svg>
