<svg width="30" height="64" viewBox="0 0 30 64" fill="none" xmlns="http://www.w3.org/2000/svg">
<g opacity="0.4">
<path d="M6.48434 12.3948C6.48434 14.0076 6.48434 21.2063 6.48434 21.2063H0V31.9811H6.48434V64H19.8046V31.982H28.743C28.743 31.982 29.5802 26.8156 29.986 21.1666C28.8226 21.1666 19.8549 21.1666 19.8549 21.1666C19.8549 21.1666 19.8549 14.8981 19.8549 13.7994C19.8549 12.6983 21.3072 11.2172 22.7426 11.2172C24.1754 11.2172 27.1993 11.2172 30 11.2172C30 9.75017 30 4.68135 30 3.8489e-08C26.2611 3.8489e-08 22.0075 3.8489e-08 20.1325 3.8489e-08C6.15508 -0.000743954 6.48434 10.7848 6.48434 12.3948Z" fill="white"/>
</g>
</svg>
