<svg width="65" height="64" viewBox="0 0 65 64" fill="none" xmlns="http://www.w3.org/2000/svg">
<g opacity="0.2">
<path d="M58.4995 53.125C63.2495 54.475 63.3954 59.7292 62.8745 62.1875H57.312C57.4372 61.5417 57.6124 59.925 57.312 58.625C57.0117 57.325 54.6039 55.7083 53.4375 55.0625V41L57.312 40.375C57.3329 43.0833 57.362 48.5625 57.312 48.8125C57.2495 49.125 52.562 51.4375 58.4995 53.125Z" fill="url(#paint0_linear)"/>
<path d="M42.25 50.25C46.65 51.7 46.7083 59.2292 46.1875 62.8125H38.0625C38.1875 61.8125 38.25 59.2375 37.5 56.9375C36.75 54.6375 33.8125 53.4375 32.4375 53.125L35.75 49.3125L32.4375 48.8125V32.1875H38.4375L38.0625 45.125L34.5 47.875C35.25 48.0625 37.85 48.8 42.25 50.25Z" fill="url(#paint1_linear)"/>
<path d="M18.5 55.5625V62.8125H14.1875C14.2292 62.4167 14.2875 61.15 14.1875 59.25C14.0875 57.35 12.6875 55.3333 12 54.5625V41H16.75V47.875L15.1875 51.625L19.5 53.5625L18.5 55.5625Z" fill="url(#paint2_linear)"/>
</g>
<path d="M57.6681 51.0045C58.3541 50.0565 58.76 48.8931 58.76 47.6362C58.76 40.25 57 38.875 51.9235 38.875C49.341 38.875 47.24 40.976 47.24 43.5585V47.6362C47.24 48.8924 47.6454 50.0549 48.3305 51.0026C47.476 51.1412 46.6539 51.415 45.8871 51.8158C44.1504 49.2243 41.305 47.437 38.0353 47.1355C38.0225 47.1319 38.0095 47.1292 37.9966 47.1261C39.1665 45.8197 39.8796 44.0963 39.8796 42.2088V32C39.8796 31.3096 39.3199 30.75 38.6296 30.75H31.0369C27.7745 30.75 25.1204 33.4041 25.1204 36.6665V42.2086C25.1204 44.0961 25.8335 45.8196 27.0034 47.126C26.9905 47.1291 26.9775 47.1319 26.9648 47.1354C23.6946 47.4369 20.8491 49.2244 19.1125 51.8162C18.3455 51.4156 17.5233 51.1416 16.6691 51.003C17.3544 50.0552 17.76 48.8925 17.76 47.6362C17.76 40.3393 15.26 38.875 12 38.875C9.4175 38.875 6.24 40.976 6.24 43.5585V47.6362C6.24 48.8932 6.64587 50.0565 7.33187 51.0045C3.46275 51.6369 0.5 55.0018 0.5 59.0469V62.75C0.5 63.4404 1.05975 64 1.75 64H63.25C63.9403 64 64.5 63.4404 64.5 62.75V59.0469C64.5 55.0018 61.5373 51.6369 57.6681 51.0045ZM8.74 43.5585C8.74 42.3545 10.2323 41.375 12 41.375C13.7677 41.375 15.26 42.8974 15.26 42.8974C15.26 43.6439 14.6528 44.2511 13.9064 44.2511H8.74V43.5585ZM8.74 46.751H13.9064C14.3826 46.751 14.8386 46.6636 15.26 46.5049V47.6362C15.26 49.4338 13.7976 50.8963 12 50.8963C10.2024 50.8963 8.74 49.4338 8.74 47.6362V46.751ZM12.8059 53.3963L12 54.2021L11.1941 53.3963H12.8059ZM17.319 57.717V61.5H3V59.0469C3 56.2432 5.05288 53.911 7.73413 53.4717L11.1161 56.8537C11.3506 57.0881 11.6685 57.2199 12 57.2199C12.3315 57.2199 12.6494 57.0881 12.8839 56.8537L16.2669 53.4706C16.8644 53.5679 17.439 53.7605 17.9745 54.0423C17.551 55.188 17.319 56.4259 17.319 57.717ZM32.5001 47.0884C29.8095 47.0884 27.6205 44.8994 27.6205 42.2088V40.5566H35.091C35.9194 40.5566 36.6994 40.345 37.3797 39.9733V42.2088C37.3797 44.8994 35.1908 47.0884 32.5001 47.0884ZM34.679 49.5882L32.5 51.7673L30.321 49.5882H34.679ZM27.6203 36.6665C27.6203 34.7826 29.153 33.25 31.0369 33.25H37.3796V35.768C37.3796 37.03 36.3529 38.0568 35.0909 38.0568H27.6203V36.6665ZM45.1809 61.5H42.75H22.25H19.8191V59H27.9584C28.6486 59 29.2084 58.4404 29.2084 57.75C29.2084 57.0596 28.6486 56.5 27.9584 56.5H19.9105C20.4462 52.9474 23.29 50.143 26.8604 49.6631L31.6161 54.4189C31.8603 54.663 32.1801 54.785 32.5 54.785C32.8199 54.785 33.1398 54.663 33.3839 54.4189L38.1396 49.6631C42.1091 50.1966 45.1809 53.6037 45.1809 57.717V61.5ZM49.74 43.5585C49.74 42.3545 50.5 41.5 53 41.5C55.8438 41.5 56.26 42.8974 56.26 42.8974C56.26 43.6439 55.6528 44.2511 54.9064 44.2511H49.74V43.5585ZM49.74 46.751H54.9064C55.3826 46.751 55.8386 46.6636 56.26 46.5049V47.6362C56.26 49.4338 54.7976 50.8963 53 50.8963C51.2024 50.8963 49.74 49.4338 49.74 47.6362V46.751ZM53.8059 53.3963L53 54.2021L52.1941 53.3963H53.8059ZM47.6809 61.5V57.717C47.6809 56.4257 47.4489 55.1879 47.0252 54.042C47.5605 53.76 48.135 53.5675 48.7326 53.4704L52.116 56.8537C52.3505 57.0881 52.6684 57.2199 52.9999 57.2199C53.3314 57.2199 53.6493 57.0881 53.8838 56.8537L57.2658 53.4717C59.947 53.9111 61.9999 56.2432 61.9999 59.0469V61.5H47.6809Z" fill="url(#paint3_linear)"/>
<path d="M33.3836 56.8662C33.1513 56.6337 32.8288 56.5 32.5 56.5C32.1712 56.5 31.8487 56.6337 31.6162 56.8662C31.3837 57.0987 31.25 57.4212 31.25 57.75C31.25 58.0788 31.3836 58.4013 31.6162 58.6338C31.8489 58.8663 32.1712 59 32.5 59C32.8288 59 33.1513 58.8663 33.3836 58.6338C33.6161 58.4013 33.75 58.0788 33.75 57.75C33.75 57.4212 33.6163 57.0987 33.3836 56.8662Z" fill="url(#paint4_linear)"/>
<path d="M37.6102 1.08401C36.9798 0.802885 36.2407 1.08601 35.9595 1.71651C35.6782 2.34701 35.9615 3.08613 36.592 3.36726C40.2168 4.98388 42.5591 8.59226 42.5591 12.56C42.5591 18.107 38.0462 22.6199 32.4992 22.6199C26.9522 22.6199 22.4393 18.107 22.4393 12.56C22.4393 8.61276 24.7647 5.01188 28.3635 3.38651C28.9926 3.10238 29.2723 2.36188 28.9881 1.73276C28.704 1.10351 27.9631 0.823885 27.3345 1.10801C22.8422 3.13701 19.9395 7.63213 19.9395 12.5599C19.9393 19.4855 25.5737 25.1199 32.4992 25.1199C39.4247 25.1199 45.0591 19.4855 45.0591 12.56C45.0591 7.60663 42.1352 3.10201 37.6102 1.08401Z" fill="url(#paint5_linear)"/>
<mask id="mask0" mask-type="alpha" maskUnits="userSpaceOnUse" x="21" y="1" width="23" height="23">
<circle cx="32.5" cy="12.5" r="11.5" fill="#C4C4C4"/>
</mask>
<g mask="url(#mask0)">
<circle opacity="0.2" cx="36.5938" cy="7.90625" r="9.90625" fill="url(#paint6_linear)"/>
</g>
<path fill-rule="evenodd" clip-rule="evenodd" d="M32.5996 6C31.9102 6 31.3496 6.55957 31.3496 7.25V11.25H27.3496C26.6602 11.25 26.0996 11.8096 26.0996 12.5C26.0996 13.1904 26.6602 13.75 27.3496 13.75H31.3496V17.75C31.3496 18.4404 31.9102 19 32.5996 19C33.2891 19 33.8496 18.4404 33.8496 17.75V13.75H37.8496C38.2188 13.75 38.5508 13.5894 38.7793 13.3337C38.9785 13.1125 39.0996 12.8203 39.0996 12.5C39.0996 11.8096 38.5391 11.25 37.8496 11.25H33.8496V7.25C33.8496 6.93213 33.7305 6.64209 33.5352 6.42163C33.3066 6.16309 32.9727 6 32.5996 6Z" fill="url(#paint7_linear)"/>
<path d="M32.5448 0H32.5C31.8098 0 31.25 0.559625 31.25 1.25C31.25 1.94037 31.8098 2.5 32.5 2.5H32.533C32.535 2.5 32.5369 2.5 32.539 2.5C33.2266 2.5 33.7856 1.94425 33.7889 1.25587C33.7921 0.5655 33.2351 0.00325 32.5448 0Z" fill="url(#paint8_linear)"/>
<defs>
<linearGradient id="paint0_linear" x1="37.5401" y1="32.1875" x2="37.5401" y2="62.8125" gradientUnits="userSpaceOnUse">
<stop stop-color="#4A75F8"/>
<stop offset="1" stop-color="#94AFFF"/>
</linearGradient>
<linearGradient id="paint1_linear" x1="37.5401" y1="32.1875" x2="37.5401" y2="62.8125" gradientUnits="userSpaceOnUse">
<stop stop-color="#4A75F8"/>
<stop offset="1" stop-color="#94AFFF"/>
</linearGradient>
<linearGradient id="paint2_linear" x1="37.5401" y1="32.1875" x2="37.5401" y2="62.8125" gradientUnits="userSpaceOnUse">
<stop stop-color="#4A75F8"/>
<stop offset="1" stop-color="#94AFFF"/>
</linearGradient>
<linearGradient id="paint3_linear" x1="32.5" y1="30.75" x2="32.5" y2="64" gradientUnits="userSpaceOnUse">
<stop stop-color="#4A75F8"/>
<stop offset="1" stop-color="#94AFFF"/>
</linearGradient>
<linearGradient id="paint4_linear" x1="32.5" y1="56.5" x2="32.5" y2="59" gradientUnits="userSpaceOnUse">
<stop stop-color="#4A75F8"/>
<stop offset="1" stop-color="#94AFFF"/>
</linearGradient>
<linearGradient id="paint5_linear" x1="19.9003" y1="13.0476" x2="45.1255" y2="13.0476" gradientUnits="userSpaceOnUse">
<stop stop-color="#FF5B4D"/>
<stop offset="1" stop-color="#FF791A"/>
</linearGradient>
<linearGradient id="paint6_linear" x1="26.6566" y1="7.90625" x2="46.5524" y2="7.90625" gradientUnits="userSpaceOnUse">
<stop stop-color="#FF5B4D"/>
<stop offset="1" stop-color="#FF791A"/>
</linearGradient>
<linearGradient id="paint7_linear" x1="26.0794" y1="12.5" x2="39.134" y2="12.5" gradientUnits="userSpaceOnUse">
<stop stop-color="#FF5B4D"/>
<stop offset="1" stop-color="#FF791A"/>
</linearGradient>
<linearGradient id="paint8_linear" x1="31.246" y1="1.25" x2="33.7956" y2="1.25" gradientUnits="userSpaceOnUse">
<stop stop-color="#FF5B4D"/>
<stop offset="1" stop-color="#FF791A"/>
</linearGradient>
</defs>
</svg>
