<svg width="25" height="25" viewBox="0 0 25 25" fill="none" xmlns="http://www.w3.org/2000/svg">
<circle cx="12.5" cy="12.5" r="11.25" stroke="url(#paint0_linear)" stroke-width="2.5"/>
<path d="M11.083 8.15843C11.1287 8.24984 11.1744 8.34125 11.2201 8.4098C11.2658 8.47836 11.3344 8.54691 11.3801 8.61547C11.4486 8.68403 11.5172 8.75258 11.6086 8.82114C11.6772 8.86684 11.7686 8.9354 11.8828 8.95825C11.9742 9.00395 12.0656 9.0268 12.1799 9.04966C12.2942 9.07251 12.3856 9.07251 12.477 9.07251C12.5684 9.07251 12.6826 9.07251 12.7741 9.04966C12.8655 9.0268 12.9569 9.00395 13.0254 8.95825H13.0483C13.1397 8.91255 13.2311 8.86684 13.3225 8.79829C13.3911 8.75258 13.4596 8.68403 13.5282 8.61547L13.551 8.59262C13.6196 8.52406 13.6653 8.45551 13.711 8.38695C13.7567 8.3184 13.8024 8.24984 13.8252 8.15843C13.8252 8.13558 13.8252 8.13558 13.8481 8.11273C13.8938 8.02132 13.9166 7.90706 13.9395 7.81565C13.9624 7.72425 13.9624 7.60999 13.9624 7.51858C13.9624 7.42717 13.9624 7.31291 13.9395 7.2215C13.9166 7.1301 13.8938 7.03869 13.8481 6.92443C13.7795 6.76446 13.6881 6.62735 13.5739 6.51309C13.551 6.49024 13.551 6.49024 13.5282 6.46739C13.4596 6.39883 13.3911 6.35313 13.2996 6.28457C13.2082 6.23887 13.1397 6.19317 13.0483 6.14746C12.9569 6.10176 12.8655 6.07891 12.7741 6.05606C12.6598 6.0332 12.5684 6.0332 12.477 6.0332C12.3856 6.0332 12.2713 6.0332 12.1799 6.05606C12.0885 6.07891 11.9971 6.10176 11.9057 6.14746H11.8828C11.7914 6.19317 11.7 6.23887 11.6315 6.28457C11.54 6.35313 11.4715 6.39883 11.4029 6.46739C11.3344 6.53595 11.2658 6.6045 11.2201 6.67306C11.1744 6.74161 11.1287 6.83302 11.083 6.92443C11.0373 7.01584 11.0145 7.10724 10.9916 7.19865C10.9687 7.31291 10.9688 7.40432 10.9688 7.49573C10.9688 7.58713 10.9687 7.70139 10.9916 7.7928C11.0145 7.97562 11.0602 8.06702 11.083 8.15843Z" fill="url(#paint1_linear)"/>
<path d="M14.2598 16.522H13.7342V10.9233C13.7342 10.6033 13.4829 10.3291 13.1401 10.3291H10.7406C10.4207 10.3291 10.1465 10.5805 10.1465 10.9233V12.1573C10.1465 12.4772 10.3979 12.7514 10.7406 12.7514H11.2205V16.5448H10.7406C10.4207 16.5448 10.1465 16.7962 10.1465 17.139V18.373C10.1465 18.6929 10.3979 18.9671 10.7406 18.9671H14.2598C14.5798 18.9671 14.854 18.7158 14.854 18.373V17.139C14.854 16.7962 14.5798 16.522 14.2598 16.522Z" fill="url(#paint2_linear)"/>
<defs>
<linearGradient id="paint0_linear" x1="-0.0389293" y1="12.5" x2="25.0661" y2="12.5" gradientUnits="userSpaceOnUse">
<stop stop-color="#FF5B4D"/>
<stop offset="1" stop-color="#FF791A"/>
</linearGradient>
<linearGradient id="paint1_linear" x1="10.9641" y1="7.55286" x2="13.9703" y2="7.55286" gradientUnits="userSpaceOnUse">
<stop stop-color="#FF5B4D"/>
<stop offset="1" stop-color="#FF791A"/>
</linearGradient>
<linearGradient id="paint2_linear" x1="10.1392" y1="14.6481" x2="14.8664" y2="14.6481" gradientUnits="userSpaceOnUse">
<stop stop-color="#FF5B4D"/>
<stop offset="1" stop-color="#FF791A"/>
</linearGradient>
</defs>
</svg>
