<svg width="148" height="32" viewBox="0 0 148 32" fill="none" xmlns="http://www.w3.org/2000/svg">
<path d="M115.884 16.4411C115.443 16.1963 115.359 15.8466 115.632 15.3922L122.636 3.72265C122.909 3.26823 123.265 3.16345 123.706 3.40832L127.24 5.37078C129.507 6.63011 130.866 7.85735 131.316 9.05248C131.772 10.2511 131.61 11.5018 130.828 12.8045C130.046 14.1071 129.001 14.8681 127.694 15.0872C126.393 15.3099 124.609 14.7915 122.341 13.5322L121.611 13.1263C121.221 12.91 120.719 13.0443 120.49 13.4263L118.391 16.9244C118.118 17.3788 117.761 17.4836 117.32 17.2387L115.884 16.4411ZM122.651 9.82534C122.422 10.2074 122.552 10.6924 122.942 10.9087L123.663 11.3094C124.923 12.009 125.865 12.3424 126.489 12.3095C127.117 12.2705 127.631 11.9178 128.031 11.2513C128.431 10.5848 128.49 9.98324 128.207 9.4466C127.928 8.9039 127.159 8.28274 125.899 7.58311L125.178 7.18247C124.788 6.96615 124.287 7.10047 124.058 7.48248L122.651 9.82534Z" fill="url(#paint0_linear)"/>
<path d="M0.627368 15.049C-0.0344708 15.049 -0.172657 14.7482 0.21281 14.1465L2.84198 10.0117C3.35836 9.20012 3.84565 8.60543 4.30385 8.22763C4.76784 7.84405 5.2752 7.55085 5.82592 7.34803C5.82907 7.34687 5.83117 7.34387 5.83117 7.34052C5.83117 7.33751 5.82949 7.33476 5.8268 7.33339C5.41357 7.12338 4.98228 6.7918 4.53294 6.33863C4.08202 5.87688 3.71474 5.44311 3.43109 5.03733L0.551002 0.902521C0.129171 0.30084 0.267357 0 0.96556 0H2.89653C3.282 0 3.60928 0.20639 3.87838 0.619171L6.11481 4.02986C6.493 4.60356 6.94029 5.0898 7.45667 5.48859C7.98032 5.88038 8.44943 6.07627 8.86399 6.07627C9.00256 6.07627 9.1149 5.96393 9.1149 5.82536V0.787082C9.1149 0.262361 9.36946 0 9.87856 0H11.5368C12.0459 0 12.3005 0.262361 12.3005 0.787082V5.82536C12.3005 5.96393 12.4128 6.07627 12.5514 6.07627C12.9659 6.07627 13.4314 5.88038 13.9478 5.48859C14.4714 5.0898 14.9224 4.60356 15.3005 4.02986L17.537 0.619171C17.8061 0.20639 18.1334 0 18.5188 0H20.4498C21.148 0 21.2862 0.30084 20.8644 0.902521L17.9843 5.03733C17.7006 5.44311 17.3333 5.87688 16.8824 6.33863C16.4331 6.7918 16.0018 7.12338 15.5886 7.33339C15.5859 7.33476 15.5842 7.33751 15.5842 7.34052C15.5842 7.34387 15.5863 7.34687 15.5894 7.34803C16.1401 7.55085 16.6439 7.84405 17.1006 8.22763C17.5661 8.60543 18.057 9.20012 18.5734 10.0117L21.2026 14.1465C21.588 14.7482 21.4498 15.049 20.788 15.049H18.7479C18.3334 15.049 18.0061 14.8426 17.7661 14.4298L15.7587 11.0192C15.3806 10.3755 14.8933 9.81929 14.2969 9.35054C13.7005 8.87479 13.1732 8.63692 12.715 8.63692C12.4861 8.63692 12.3005 8.82252 12.3005 9.05147V14.2619C12.3005 14.7867 12.0459 15.049 11.5368 15.049H9.87856C9.36946 15.049 9.1149 14.7867 9.1149 14.2619V9.05147C9.1149 8.82252 8.9293 8.63692 8.70035 8.63692C8.24215 8.63692 7.71486 8.87479 7.11848 9.35054C6.5221 9.81929 6.03481 10.3755 5.65661 11.0192L3.64928 14.4298C3.40927 14.8426 3.08199 15.049 2.66743 15.049H0.627368Z" fill="#4066D7"/>
<path d="M23.7663 15.049C23.2572 15.049 23.0026 14.7867 23.0026 14.2619V0.787082C23.0026 0.262361 23.2572 0 23.7663 0H25.4245C25.9336 0 26.1882 0.262361 26.1882 0.787082V9.06719C26.1882 9.47048 26.1714 9.87377 26.1378 10.2771C26.1356 10.3037 26.1566 10.3265 26.1832 10.3265C26.1997 10.3265 26.215 10.3176 26.223 10.3032L31.5556 0.73461C31.832 0.24487 32.3047 0 32.9738 0H35.0248C35.5339 0 35.7885 0.262361 35.7885 0.787082V14.2619C35.7885 14.7867 35.5339 15.049 35.0248 15.049H33.3666C32.8575 15.049 32.6029 14.7867 32.6029 14.2619V5.98182C32.6029 5.57853 32.6197 5.17524 32.6533 4.77194C32.6555 4.74535 32.6345 4.72249 32.6078 4.72249C32.5913 4.72249 32.5761 4.73143 32.5681 4.74585L27.2355 14.3144C26.9591 14.8041 26.4864 15.049 25.8172 15.049H23.7663Z" fill="#4066D7"/>
<path d="M40.1522 15.049C39.5704 15.049 39.2795 14.7867 39.2795 14.2619V0.787082C39.2795 0.262361 39.5704 0 40.1522 0H43.8614C46.6542 0 48.5379 0.332324 49.5125 0.996971C50.4944 1.65462 50.9853 2.66908 50.9853 4.04036C50.9853 4.99885 50.618 5.74045 49.8834 6.26517C49.1615 6.78603 48.4611 7.08973 47.7821 7.1763C47.7735 7.1774 47.767 7.18474 47.767 7.19347C47.767 7.20258 47.774 7.21011 47.7831 7.21075C48.4415 7.25688 49.2143 7.57835 50.1016 8.17516C50.9962 8.77684 51.4435 9.62689 51.4435 10.7253C51.4435 12.0126 50.898 13.0551 49.8071 13.8526C48.7161 14.6502 46.9161 15.049 44.4069 15.049H40.1522ZM42.465 11.6818C42.465 12.1273 42.8261 12.4884 43.2716 12.4884H44.0578C45.5997 12.4884 46.647 12.3589 47.1997 12.1001C47.7597 11.8412 48.0397 11.3165 48.0397 10.5259C48.0397 9.78431 47.7161 9.27358 47.0688 8.99373C46.4288 8.70688 45.4251 8.56345 44.0578 8.56345H43.2716C42.8261 8.56345 42.465 8.92457 42.465 9.37002V11.6818ZM42.465 5.2802C42.465 5.72566 42.8261 6.08677 43.2716 6.08677H43.8942C44.8324 6.08677 45.7088 5.92935 46.5233 5.61452C47.3452 5.29969 47.7561 4.80995 47.7561 4.1453C47.7561 3.62757 47.527 3.23578 47.0688 2.96992C46.6179 2.69707 45.5597 2.56064 43.8942 2.56064H43.2716C42.8261 2.56064 42.465 2.92175 42.465 3.36721V5.2802Z" fill="#4066D7"/>
<path d="M53.8436 15.049C53.3199 15.049 53.149 14.8181 53.3308 14.3564L58.6764 0.850049C58.9019 0.28335 59.2437 0 59.7019 0H61.2292C61.6874 0 62.0293 0.28335 62.2547 0.850049L67.6003 14.3564C67.7822 14.8181 67.6113 15.049 67.0876 15.049H65.353C64.873 15.049 64.5384 14.8076 64.3493 14.3249L63.4379 12.0127C63.3164 11.7045 63.0188 11.5019 62.6875 11.5019H58.2436C57.9123 11.5019 57.6147 11.7045 57.4933 12.0127L56.5818 14.3249C56.3927 14.8076 56.0582 15.049 55.5782 15.049H53.8436ZM59.1487 7.78759C58.942 8.32012 59.3316 8.89928 59.9028 8.89928H61.0284C61.5996 8.89928 61.9944 8.32031 61.7998 7.78321C61.1826 6.07884 60.4874 3.91442 60.4874 3.91442C60.4874 3.91442 60.2397 4.97679 59.1487 7.78759Z" fill="#4066D7"/>
<path d="M70.0768 15.049C69.3786 15.049 69.2404 14.7482 69.6622 14.1465L71.9968 10.7883C72.2078 10.4874 72.5532 10.0781 73.0332 9.56042C73.5181 9.03828 73.9922 8.64431 74.4555 8.37849C74.4598 8.37604 74.4624 8.37152 74.4624 8.36661C74.4624 8.35931 74.4566 8.35329 74.4493 8.35293C72.9938 8.28111 71.8672 7.86504 71.0695 7.10473C70.2768 6.33514 69.8804 5.44661 69.8804 4.43914C69.8804 2.99091 70.3823 1.889 71.3859 1.1334C72.3896 0.377799 74.066 0 76.4152 0H81.4771C81.9863 0 82.2408 0.262361 82.2408 0.787082V14.2619C82.2408 14.7867 81.9863 15.049 81.4771 15.049H79.8189C79.3098 15.049 79.0553 14.7867 79.0553 14.2619V9.70118C79.0553 9.33365 78.7573 9.0357 78.3898 9.0357C77.6843 9.0357 77.117 9.21061 76.6879 9.56042C76.2588 9.91024 75.8297 10.4035 75.4006 11.0401L73.1205 14.4298C72.8442 14.8426 72.5169 15.049 72.1387 15.049H70.0768ZM73.1096 4.41815C73.1096 5.33467 73.4987 5.90836 74.2769 6.13924C75.0551 6.36312 75.957 6.47506 76.9825 6.47506H78.2487C78.6941 6.47506 79.0553 6.11395 79.0553 5.6685V3.36721C79.0553 2.92175 78.6941 2.56064 78.2487 2.56064H76.5679C75.4697 2.56064 74.6188 2.70057 74.0151 2.98042C73.4114 3.26027 73.1096 3.73951 73.1096 4.41815Z" fill="#4066D7"/>
<path d="M134.044 15.049C133.52 15.049 133.349 14.8181 133.531 14.3564L138.877 0.850049C139.102 0.28335 139.444 0 139.902 0H141.43C141.888 0 142.23 0.28335 142.455 0.850049L147.801 14.3564C147.983 14.8181 147.812 15.049 147.288 15.049H145.553C145.073 15.049 144.739 14.8076 144.55 14.3249L143.638 12.0127C143.517 11.7045 143.219 11.5019 142.888 11.5019H138.444C138.113 11.5019 137.815 11.7045 137.694 12.0127L136.782 14.3249C136.593 14.8076 136.259 15.049 135.779 15.049H134.044ZM139.332 7.78322C139.137 8.32031 139.532 8.89928 140.103 8.89928H141.229C141.8 8.89928 142.19 8.32031 141.983 7.78764C140.928 5.06251 140.644 3.91442 140.644 3.91442C140.644 3.91442 139.95 6.07684 139.332 7.78322Z" fill="#4066D7"/>
<path d="M93.5 15.049C92.9909 15.049 92.7363 14.7867 92.7363 14.2619V0.787082C92.7363 0.262361 92.9909 0 93.5 0H95.1582C95.6673 0 95.9219 0.262361 95.9219 0.787082V9.06719C95.9219 9.47048 95.9051 9.87377 95.8715 10.2771C95.8693 10.3037 95.8903 10.3265 95.917 10.3265C95.9335 10.3265 95.9487 10.3176 95.9567 10.3032L101.289 0.73461C101.566 0.24487 102.038 0 102.708 0H104.759C105.268 0 105.522 0.262361 105.522 0.787082V14.2619C105.522 14.7867 105.268 15.049 104.759 15.049H103.1C102.591 15.049 102.337 14.7867 102.337 14.2619V5.98182C102.337 5.57853 102.353 5.17524 102.387 4.77194C102.389 4.74535 102.368 4.72249 102.342 4.72249C102.325 4.72249 102.31 4.73143 102.302 4.74585L96.9692 14.3144C96.6928 14.8041 96.2201 15.049 95.551 15.049H93.5Z" fill="#4066D7"/>
<path d="M109.777 15.049C109.268 15.049 109.014 14.7867 109.014 14.2619V0.787082C109.014 0.262361 109.268 0 109.777 0H118.276C118.821 0 119.094 0.227379 119.094 0.682138V1.92048C119.094 2.37524 118.821 2.60262 118.276 2.60262H113.006C112.56 2.60262 112.199 2.96373 112.199 3.40918V14.2619C112.199 14.7867 111.945 15.049 111.436 15.049H109.777Z" fill="#4066D7"/>
<path opacity="0.75" d="M38.5836 28.4661C38.8711 28.4661 39.0978 28.396 39.2636 28.256C39.4332 28.1159 39.5179 27.9243 39.5179 27.681C39.5179 27.5778 39.5032 27.482 39.4737 27.3935C39.4479 27.3014 39.4 27.2221 39.33 27.1558C39.2599 27.0894 39.1641 27.0378 39.0425 27.001C38.9245 26.9641 38.7734 26.9457 38.5891 26.9457H37.5663V28.4661H38.5836ZM37.5663 24.6181V26.1053H38.462C38.5947 26.1053 38.7163 26.0869 38.8269 26.0501C38.9374 26.0095 39.0333 25.9542 39.1143 25.8842C39.1954 25.8105 39.2581 25.7257 39.3023 25.6299C39.3466 25.5304 39.3687 25.4216 39.3687 25.3037C39.3687 25.2189 39.3539 25.136 39.3244 25.0549C39.2949 24.9701 39.2452 24.8964 39.1752 24.8338C39.1051 24.7674 39.0111 24.7158 38.8932 24.679C38.7789 24.6384 38.6352 24.6181 38.462 24.6181H37.5663ZM38.5007 23.728C38.8582 23.728 39.1659 23.763 39.424 23.8331C39.6856 23.9031 39.9013 23.9989 40.0708 24.1206C40.2403 24.2422 40.3657 24.3878 40.4467 24.5573C40.5278 24.7232 40.5684 24.9038 40.5684 25.0991C40.5684 25.2208 40.5518 25.3479 40.5186 25.4806C40.4891 25.6096 40.4338 25.7349 40.3528 25.8565C40.2754 25.9782 40.1685 26.0888 40.0321 26.1883C39.8957 26.2878 39.7225 26.3652 39.5124 26.4205C39.7004 26.461 39.8718 26.5181 40.0266 26.5919C40.1814 26.6619 40.3141 26.7522 40.4246 26.8628C40.5352 26.9696 40.62 27.0968 40.6789 27.2442C40.7416 27.388 40.7729 27.5501 40.7729 27.7307C40.7729 28.0182 40.7121 28.267 40.5905 28.4771C40.4725 28.6872 40.3122 28.8604 40.1095 28.9968C39.9105 29.1332 39.6783 29.2345 39.4129 29.3009C39.1512 29.3672 38.8766 29.4004 38.5891 29.4004H36.2671V23.728H38.5007ZM44.1446 28.4218C44.4542 28.4218 44.6846 28.3444 44.8357 28.1896C44.9905 28.0348 45.0679 27.8358 45.0679 27.5925C45.0679 27.4893 45.0495 27.3898 45.0126 27.294C44.9794 27.1982 44.926 27.1134 44.8523 27.0397C44.7786 26.966 44.6827 26.9088 44.5648 26.8683C44.4468 26.8241 44.3049 26.8019 44.1391 26.8019H43.1273V28.4218H44.1446ZM44.1336 25.8289C44.5279 25.8289 44.8615 25.8768 45.1342 25.9726C45.407 26.0685 45.6281 26.1975 45.7977 26.3597C45.9672 26.5218 46.0888 26.7098 46.1626 26.9236C46.24 27.1337 46.2787 27.3548 46.2787 27.587C46.2787 27.8524 46.2307 28.0975 46.1349 28.3223C46.0428 28.5435 45.9046 28.7351 45.7203 28.8973C45.5397 29.0558 45.3167 29.1792 45.0513 29.2677C44.7896 29.3562 44.4892 29.4004 44.1501 29.4004H41.8281V23.728H43.1273V25.8289H44.1336ZM48.6781 23.728V29.4004H47.3125V23.728H48.6781ZM52.6887 28.4882C53.1604 28.4882 53.5124 28.3371 53.7446 28.0348C53.9768 27.7326 54.0929 27.2903 54.0929 26.708C54.0929 26.1293 53.9787 25.6888 53.7501 25.3866C53.5253 25.0844 53.1807 24.9333 52.7163 24.9333C52.2519 24.9333 51.8981 25.077 51.6548 25.3645C51.4115 25.6483 51.2899 26.074 51.2899 26.6416C51.2899 27.2424 51.4042 27.7013 51.6327 28.0182C51.8649 28.3315 52.2169 28.4882 52.6887 28.4882ZM53.0867 22.6997C52.7403 22.7218 52.4436 22.79 52.1966 22.9043C51.9533 23.0148 51.7506 23.166 51.5885 23.3576C51.43 23.5456 51.3083 23.7723 51.2236 24.0376C51.1425 24.2993 51.0946 24.5905 51.0798 24.9112C51.172 24.7674 51.2844 24.6366 51.4171 24.5186C51.5534 24.397 51.7046 24.2938 51.8704 24.209C52.04 24.1206 52.2224 24.0524 52.4178 24.0045C52.6168 23.9565 52.8287 23.9326 53.0535 23.9326C53.4295 23.9326 53.7686 23.9989 54.0708 24.1316C54.373 24.2643 54.6292 24.4523 54.8393 24.6955C55.0531 24.9388 55.2152 25.2318 55.3258 25.5746C55.4401 25.9137 55.4972 26.2896 55.4972 26.7024C55.4972 27.13 55.429 27.5151 55.2926 27.8579C55.1599 28.2007 54.9701 28.4937 54.7232 28.737C54.4799 28.9765 54.1851 29.1608 53.8386 29.2898C53.4921 29.4188 53.1088 29.4833 52.6887 29.4833C52.2795 29.4833 51.9017 29.417 51.5553 29.2843C51.2125 29.1516 50.9158 28.936 50.6652 28.6374C50.4145 28.3389 50.2192 27.9519 50.0791 27.4764C49.9391 26.9973 49.8691 26.4131 49.8691 25.7239C49.8691 25.1452 49.9225 24.6071 50.0294 24.1095C50.1363 23.6119 50.3113 23.177 50.5546 22.8048C50.7979 22.4288 51.1167 22.1266 51.5111 21.8981C51.9054 21.6695 52.392 21.5332 52.9706 21.4889L54.9886 21.3341L55.0604 22.0418C55.0752 22.1929 55.0531 22.3219 54.9941 22.4288C54.9351 22.532 54.8301 22.5873 54.679 22.5947L53.0867 22.6997ZM58.8732 28.4218C59.1828 28.4218 59.4131 28.3444 59.5643 28.1896C59.7191 28.0348 59.7965 27.8358 59.7965 27.5925C59.7965 27.4893 59.778 27.3898 59.7412 27.294C59.708 27.1982 59.6546 27.1134 59.5808 27.0397C59.5071 26.966 59.4113 26.9088 59.2934 26.8683C59.1754 26.8241 59.0335 26.8019 58.8677 26.8019H57.8559V28.4218H58.8732ZM58.8621 25.8289C59.2565 25.8289 59.5901 25.8768 59.8628 25.9726C60.1355 26.0685 60.3567 26.1975 60.5262 26.3597C60.6958 26.5218 60.8174 26.7098 60.8911 26.9236C60.9685 27.1337 61.0072 27.3548 61.0072 27.587C61.0072 27.8524 60.9593 28.0975 60.8635 28.3223C60.7713 28.5435 60.6331 28.7351 60.4488 28.8973C60.2682 29.0558 60.0452 29.1792 59.7799 29.2677C59.5182 29.3562 59.2178 29.4004 58.8787 29.4004H56.5567V23.728H57.8559V25.8289H58.8621ZM63.4066 23.728V29.4004H62.0411V23.728H63.4066ZM67.0689 28.4661C67.3564 28.4661 67.5831 28.396 67.7489 28.256C67.9185 28.1159 68.0033 27.9243 68.0033 27.681C68.0033 27.5778 67.9885 27.482 67.959 27.3935C67.9332 27.3014 67.8853 27.2221 67.8153 27.1558C67.7453 27.0894 67.6494 27.0378 67.5278 27.001C67.4099 26.9641 67.2587 26.9457 67.0745 26.9457H66.0517V28.4661H67.0689ZM66.0517 24.6181V26.1053H66.9473C67.08 26.1053 67.2016 26.0869 67.3122 26.0501C67.4228 26.0095 67.5186 25.9542 67.5997 25.8842C67.6808 25.8105 67.7434 25.7257 67.7876 25.6299C67.8319 25.5304 67.854 25.4216 67.854 25.3037C67.854 25.2189 67.8392 25.136 67.8098 25.0549C67.7803 24.9701 67.7305 24.8964 67.6605 24.8338C67.5905 24.7674 67.4965 24.7158 67.3785 24.679C67.2643 24.6384 67.1205 24.6181 66.9473 24.6181H66.0517ZM66.986 23.728C67.3435 23.728 67.6513 23.763 67.9093 23.8331C68.171 23.9031 68.3866 23.9989 68.5561 24.1206C68.7257 24.2422 68.851 24.3878 68.9321 24.5573C69.0132 24.7232 69.0537 24.9038 69.0537 25.0991C69.0537 25.2208 69.0371 25.3479 69.0039 25.4806C68.9745 25.6096 68.9192 25.7349 68.8381 25.8565C68.7607 25.9782 68.6538 26.0888 68.5174 26.1883C68.381 26.2878 68.2078 26.3652 67.9977 26.4205C68.1857 26.461 68.3571 26.5181 68.5119 26.5919C68.6667 26.6619 68.7994 26.7522 68.91 26.8628C69.0205 26.9696 69.1053 27.0968 69.1643 27.2442C69.2269 27.388 69.2583 27.5501 69.2583 27.7307C69.2583 28.0182 69.1974 28.267 69.0758 28.4771C68.9579 28.6872 68.7975 28.8604 68.5948 28.9968C68.3958 29.1332 68.1636 29.2345 67.8982 29.3009C67.6365 29.3672 67.3619 29.4004 67.0745 29.4004H64.7524V23.728H66.986ZM73.3099 26.9789C72.9156 26.9973 72.5839 27.0323 72.3148 27.0839C72.0457 27.1318 71.8301 27.1945 71.6679 27.2719C71.5058 27.3493 71.3897 27.4396 71.3196 27.5428C71.2496 27.646 71.2146 27.7584 71.2146 27.88C71.2146 28.1196 71.2846 28.291 71.4247 28.3942C71.5684 28.4974 71.7546 28.549 71.9831 28.549C72.2632 28.549 72.5046 28.4992 72.7073 28.3997C72.9137 28.2965 73.1146 28.1417 73.3099 27.9353V26.9789ZM70.1808 24.5186C70.8331 23.9215 71.6182 23.623 72.5359 23.623C72.8677 23.623 73.1644 23.6783 73.426 23.7888C73.6877 23.8957 73.9089 24.0468 74.0895 24.2422C74.2701 24.4339 74.4065 24.6642 74.4986 24.9333C74.5944 25.2023 74.6423 25.4972 74.6423 25.8178V29.4004H74.0231C73.8941 29.4004 73.7946 29.382 73.7246 29.3451C73.6546 29.3046 73.5993 29.2253 73.5587 29.1074L73.4371 28.6983C73.2934 28.8273 73.1533 28.9415 73.0169 29.041C72.8806 29.1369 72.7387 29.2179 72.5912 29.2843C72.4438 29.3506 72.2853 29.4004 72.1158 29.4336C71.9499 29.4704 71.7656 29.4888 71.5629 29.4888C71.3233 29.4888 71.1022 29.4575 70.8995 29.3949C70.6968 29.3285 70.5217 29.2308 70.3743 29.1018C70.2268 28.9728 70.1126 28.8125 70.0315 28.6209C69.9504 28.4292 69.9098 28.2062 69.9098 27.9519C69.9098 27.8081 69.9338 27.6662 69.9817 27.5262C70.0296 27.3824 70.107 27.2461 70.2139 27.1171C70.3245 26.9881 70.4664 26.8664 70.6396 26.7522C70.8129 26.6379 71.0248 26.5384 71.2754 26.4536C71.5297 26.3689 71.8246 26.3007 72.16 26.2491C72.4954 26.1938 72.8787 26.1606 73.3099 26.1496V25.8178C73.3099 25.4382 73.2289 25.1581 73.0667 24.9775C72.9045 24.7932 72.6705 24.7011 72.3646 24.7011C72.1434 24.7011 71.9591 24.7269 71.8117 24.7785C71.6679 24.8301 71.5408 24.889 71.4302 24.9554C71.3196 25.018 71.2183 25.0752 71.1261 25.1268C71.0377 25.1784 70.9382 25.2042 70.8276 25.2042C70.7318 25.2042 70.6507 25.1802 70.5843 25.1323C70.518 25.0807 70.4646 25.0217 70.424 24.9554L70.1808 24.5186ZM79.5829 25.9118C79.5829 25.7349 79.5571 25.5691 79.5055 25.4143C79.4575 25.2558 79.3838 25.1176 79.2843 24.9996C79.1848 24.8817 79.0576 24.7895 78.9028 24.7232C78.7517 24.6532 78.5748 24.6181 78.3721 24.6181C77.9777 24.6181 77.6663 24.7306 77.4378 24.9554C77.2129 25.1802 77.0692 25.499 77.0065 25.9118H79.5829ZM76.9789 26.7356C77.001 27.0268 77.0526 27.2792 77.1337 27.493C77.2148 27.7031 77.3217 27.8782 77.4543 28.0182C77.587 28.1546 77.7437 28.2578 77.9243 28.3278C78.1086 28.3942 78.3113 28.4274 78.5324 28.4274C78.7536 28.4274 78.9434 28.4016 79.1019 28.35C79.264 28.2984 79.4041 28.2412 79.522 28.1786C79.6437 28.1159 79.7487 28.0588 79.8372 28.0072C79.9293 27.9556 80.0178 27.9298 80.1025 27.9298C80.2168 27.9298 80.3016 27.9722 80.3569 28.0569L80.7494 28.5545C80.5983 28.7314 80.4287 28.8807 80.2408 29.0023C80.0528 29.1203 79.8556 29.2161 79.6492 29.2898C79.4465 29.3598 79.2382 29.4096 79.0245 29.4391C78.8144 29.4686 78.6098 29.4833 78.4108 29.4833C78.0164 29.4833 77.6497 29.4188 77.3106 29.2898C76.9715 29.1571 76.6766 28.9636 76.426 28.7093C76.1754 28.4513 75.9782 28.1343 75.8345 27.7584C75.6907 27.3788 75.6188 26.9402 75.6188 26.4426C75.6188 26.0556 75.6815 25.6925 75.8068 25.3534C75.9321 25.0107 76.1109 24.714 76.3431 24.4633C76.579 24.209 76.8646 24.0081 77.2 23.8607C77.5391 23.7133 77.9206 23.6396 78.3444 23.6396C78.702 23.6396 79.0318 23.6967 79.3341 23.811C79.6363 23.9252 79.8961 24.0929 80.1136 24.3141C80.3311 24.5315 80.5006 24.8006 80.6222 25.1212C80.7476 25.4382 80.8102 25.8013 80.8102 26.2104C80.8102 26.4168 80.7881 26.5568 80.7439 26.6306C80.6996 26.7006 80.6149 26.7356 80.4896 26.7356H76.9789ZM86.657 24.7398H84.6335V29.4004H83.2679V24.7398H81.25V23.728H86.657V24.7398ZM94.213 24.9277C94.1725 24.9793 94.132 25.0199 94.0914 25.0494C94.0546 25.0789 93.9993 25.0936 93.9256 25.0936C93.8555 25.0936 93.7873 25.0733 93.721 25.0328C93.6547 24.9886 93.5754 24.9406 93.4833 24.889C93.3911 24.8338 93.2806 24.7858 93.1516 24.7453C93.0262 24.7011 92.8696 24.679 92.6816 24.679C92.442 24.679 92.232 24.7232 92.0514 24.8116C91.8708 24.8964 91.7196 25.0199 91.598 25.1821C91.4801 25.3442 91.3916 25.5414 91.3326 25.7736C91.2737 26.0021 91.2442 26.262 91.2442 26.5532C91.2442 26.8554 91.2755 27.1244 91.3382 27.3603C91.4045 27.5962 91.4985 27.7952 91.6201 27.9574C91.7418 28.1159 91.8892 28.2375 92.0624 28.3223C92.2356 28.4034 92.431 28.4439 92.6484 28.4439C92.8659 28.4439 93.041 28.4181 93.1737 28.3665C93.31 28.3113 93.4243 28.2523 93.5164 28.1896C93.6086 28.1233 93.6878 28.0643 93.7542 28.0127C93.8242 27.9574 93.9016 27.9298 93.9864 27.9298C94.0969 27.9298 94.1799 27.9722 94.2352 28.0569L94.6277 28.5545C94.4766 28.7314 94.3126 28.8807 94.1356 29.0023C93.9587 29.1203 93.7744 29.2161 93.5828 29.2898C93.3948 29.3598 93.1995 29.4096 92.9967 29.4391C92.7977 29.4686 92.5987 29.4833 92.3997 29.4833C92.0495 29.4833 91.7196 29.4188 91.41 29.2898C91.1004 29.1571 90.8295 28.9655 90.5973 28.7148C90.3651 28.4642 90.1808 28.1583 90.0445 27.7971C89.9118 27.4322 89.8454 27.0176 89.8454 26.5532C89.8454 26.1367 89.9044 25.7515 90.0224 25.3977C90.144 25.0402 90.3209 24.7324 90.5531 24.4744C90.7853 24.2127 91.0728 24.0081 91.4156 23.8607C91.7583 23.7133 92.1527 23.6396 92.5987 23.6396C93.0225 23.6396 93.393 23.7078 93.7099 23.8441C94.0306 23.9805 94.3181 24.1758 94.5724 24.4302L94.213 24.9277ZM100.747 29.4004H99.3814V24.7729H97.9882C97.944 25.4695 97.8758 26.0703 97.7837 26.5753C97.6915 27.0765 97.5809 27.5022 97.4519 27.8524C97.3266 28.2025 97.1847 28.4845 97.0262 28.6983C96.8714 28.9083 96.7056 29.0724 96.5287 29.1903C96.3517 29.3082 96.1693 29.3856 95.9813 29.4225C95.7934 29.463 95.6035 29.4833 95.4119 29.4833C95.2092 29.4833 95.0599 29.4649 94.9641 29.428C94.8719 29.3949 94.8259 29.3469 94.8259 29.2843V28.4329H95.152C95.2737 28.4329 95.3953 28.4145 95.5169 28.3776C95.6386 28.3407 95.7565 28.2652 95.8708 28.1509C95.985 28.0367 96.0937 27.8745 96.1969 27.6644C96.3001 27.4506 96.3941 27.1705 96.4789 26.8241C96.5674 26.4739 96.6448 26.0464 96.7111 25.5414C96.7775 25.0365 96.8291 24.432 96.8659 23.728H100.747V29.4004ZM105.089 26.9789C104.694 26.9973 104.363 27.0323 104.094 27.0839C103.824 27.1318 103.609 27.1945 103.447 27.2719C103.285 27.3493 103.168 27.4396 103.098 27.5428C103.028 27.646 102.993 27.7584 102.993 27.88C102.993 28.1196 103.063 28.291 103.203 28.3942C103.347 28.4974 103.533 28.549 103.762 28.549C104.042 28.549 104.283 28.4992 104.486 28.3997C104.692 28.2965 104.893 28.1417 105.089 27.9353V26.9789ZM101.959 24.5186C102.612 23.9215 103.397 23.623 104.315 23.623C104.646 23.623 104.943 23.6783 105.205 23.7888C105.466 23.8957 105.688 24.0468 105.868 24.2422C106.049 24.4339 106.185 24.6642 106.277 24.9333C106.373 25.2023 106.421 25.4972 106.421 25.8178V29.4004H105.802C105.673 29.4004 105.573 29.382 105.503 29.3451C105.433 29.3046 105.378 29.2253 105.337 29.1074L105.216 28.6983C105.072 28.8273 104.932 28.9415 104.796 29.041C104.659 29.1369 104.517 29.2179 104.37 29.2843C104.223 29.3506 104.064 29.4004 103.895 29.4336C103.729 29.4704 103.544 29.4888 103.342 29.4888C103.102 29.4888 102.881 29.4575 102.678 29.3949C102.475 29.3285 102.3 29.2308 102.153 29.1018C102.006 28.9728 101.891 28.8125 101.81 28.6209C101.729 28.4292 101.689 28.2062 101.689 27.9519C101.689 27.8081 101.713 27.6662 101.76 27.5262C101.808 27.3824 101.886 27.2461 101.993 27.1171C102.103 26.9881 102.245 26.8664 102.418 26.7522C102.592 26.6379 102.804 26.5384 103.054 26.4536C103.308 26.3689 103.603 26.3007 103.939 26.2491C104.274 26.1938 104.657 26.1606 105.089 26.1496V25.8178C105.089 25.4382 105.008 25.1581 104.845 24.9775C104.683 24.7932 104.449 24.7011 104.143 24.7011C103.922 24.7011 103.738 24.7269 103.59 24.7785C103.447 24.8301 103.32 24.889 103.209 24.9554C103.098 25.018 102.997 25.0752 102.905 25.1268C102.816 25.1784 102.717 25.2042 102.606 25.2042C102.511 25.2042 102.429 25.1802 102.363 25.1323C102.297 25.0807 102.243 25.0217 102.203 24.9554L101.959 24.5186ZM110.372 28.4882C110.844 28.4882 111.196 28.3371 111.428 28.0348C111.66 27.7326 111.776 27.2903 111.776 26.708C111.776 26.1293 111.662 25.6888 111.433 25.3866C111.209 25.0844 110.864 24.9333 110.4 24.9333C109.935 24.9333 109.581 25.077 109.338 25.3645C109.095 25.6483 108.973 26.074 108.973 26.6416C108.973 27.2424 109.087 27.7013 109.316 28.0182C109.548 28.3315 109.9 28.4882 110.372 28.4882ZM110.77 22.6997C110.424 22.7218 110.127 22.79 109.88 22.9043C109.637 23.0148 109.434 23.166 109.272 23.3576C109.113 23.5456 108.992 23.7723 108.907 24.0376C108.826 24.2993 108.778 24.5905 108.763 24.9112C108.855 24.7674 108.968 24.6366 109.1 24.5186C109.237 24.397 109.388 24.2938 109.554 24.209C109.723 24.1206 109.906 24.0524 110.101 24.0045C110.3 23.9565 110.512 23.9326 110.737 23.9326C111.113 23.9326 111.452 23.9989 111.754 24.1316C112.056 24.2643 112.313 24.4523 112.523 24.6955C112.736 24.9388 112.899 25.2318 113.009 25.5746C113.123 25.9137 113.181 26.2896 113.181 26.7024C113.181 27.13 113.112 27.5151 112.976 27.8579C112.843 28.2007 112.653 28.4937 112.406 28.737C112.163 28.9765 111.868 29.1608 111.522 29.2898C111.175 29.4188 110.792 29.4833 110.372 29.4833C109.963 29.4833 109.585 29.417 109.239 29.2843C108.896 29.1516 108.599 28.936 108.348 28.6374C108.098 28.3389 107.903 27.9519 107.762 27.4764C107.622 26.9973 107.552 26.4131 107.552 25.7239C107.552 25.1452 107.606 24.6071 107.713 24.1095C107.82 23.6119 107.995 23.177 108.238 22.8048C108.481 22.4288 108.8 22.1266 109.194 21.8981C109.589 21.6695 110.075 21.5332 110.654 21.4889L112.672 21.3341L112.744 22.0418C112.758 22.1929 112.736 22.3219 112.677 22.4288C112.618 22.532 112.513 22.5873 112.362 22.5947L110.77 22.6997ZM117.894 25.9118C117.894 25.7349 117.869 25.5691 117.817 25.4143C117.769 25.2558 117.695 25.1176 117.596 24.9996C117.496 24.8817 117.369 24.7895 117.214 24.7232C117.063 24.6532 116.886 24.6181 116.684 24.6181C116.289 24.6181 115.978 24.7306 115.749 24.9554C115.524 25.1802 115.381 25.499 115.318 25.9118H117.894ZM115.29 26.7356C115.313 27.0268 115.364 27.2792 115.445 27.493C115.526 27.7031 115.633 27.8782 115.766 28.0182C115.899 28.1546 116.055 28.2578 116.236 28.3278C116.42 28.3942 116.623 28.4274 116.844 28.4274C117.065 28.4274 117.255 28.4016 117.413 28.35C117.576 28.2984 117.716 28.2412 117.834 28.1786C117.955 28.1159 118.06 28.0588 118.149 28.0072C118.241 27.9556 118.329 27.9298 118.414 27.9298C118.528 27.9298 118.613 27.9722 118.668 28.0569L119.061 28.5545C118.91 28.7314 118.74 28.8807 118.552 29.0023C118.364 29.1203 118.167 29.2161 117.961 29.2898C117.758 29.3598 117.55 29.4096 117.336 29.4391C117.126 29.4686 116.921 29.4833 116.722 29.4833C116.328 29.4833 115.961 29.4188 115.622 29.2898C115.283 29.1571 114.988 28.9636 114.738 28.7093C114.487 28.4513 114.29 28.1343 114.146 27.7584C114.002 27.3788 113.93 26.9402 113.93 26.4426C113.93 26.0556 113.993 25.6925 114.118 25.3534C114.244 25.0107 114.422 24.714 114.655 24.4633C114.891 24.209 115.176 24.0081 115.512 23.8607C115.851 23.7133 116.232 23.6396 116.656 23.6396C117.014 23.6396 117.343 23.6967 117.646 23.811C117.948 23.9252 118.208 24.0929 118.425 24.3141C118.643 24.5315 118.812 24.8006 118.934 25.1212C119.059 25.4382 119.122 25.8013 119.122 26.2104C119.122 26.4168 119.1 26.5568 119.055 26.6306C119.011 26.7006 118.926 26.7356 118.801 26.7356H115.29ZM125.244 23.728V29.4004H123.878V26.0888C123.878 26.004 123.882 25.9118 123.889 25.8123C123.9 25.7091 123.913 25.6059 123.928 25.5027C123.854 25.6723 123.773 25.8215 123.685 25.9505C123.678 25.9579 123.641 26.0095 123.574 26.1053C123.508 26.1975 123.421 26.3173 123.314 26.4647C123.211 26.6121 123.093 26.7798 122.961 26.9678C122.828 27.1521 122.693 27.3401 122.557 27.5317C122.236 27.9851 121.873 28.4974 121.468 29.0687C121.416 29.1461 121.348 29.2216 121.263 29.2953C121.182 29.3691 121.088 29.4059 120.981 29.4059H120.147V23.7336H121.512V27.0452C121.512 27.13 121.507 27.224 121.496 27.3272C121.488 27.4267 121.477 27.528 121.462 27.6312C121.543 27.4506 121.625 27.3014 121.706 27.1834C121.709 27.176 121.744 27.1263 121.811 27.0341C121.877 26.942 121.962 26.8222 122.065 26.6748C122.172 26.5274 122.292 26.3615 122.424 26.1772C122.557 25.9892 122.692 25.7976 122.828 25.6022C123.149 25.1489 123.513 24.6366 123.923 24.0653C123.974 23.9842 124.042 23.9086 124.127 23.8386C124.212 23.7649 124.308 23.728 124.415 23.728H125.244ZM122.773 22.2906C122.909 22.2906 123.023 22.2758 123.115 22.2464C123.208 22.2169 123.281 22.169 123.337 22.1026C123.392 22.0326 123.431 21.9404 123.453 21.8262C123.475 21.7119 123.486 21.5719 123.486 21.406H124.293C124.389 21.406 124.459 21.4466 124.503 21.5276C124.551 21.605 124.575 21.6917 124.575 21.7875C124.575 21.9755 124.533 22.1468 124.448 22.3016C124.363 22.4528 124.241 22.5818 124.083 22.6887C123.924 22.7919 123.735 22.8729 123.513 22.9319C123.292 22.9872 123.045 23.0148 122.773 23.0148C122.5 23.0148 122.253 22.9872 122.032 22.9319C121.811 22.8729 121.621 22.7919 121.462 22.6887C121.304 22.5818 121.182 22.4528 121.097 22.3016C121.013 22.1468 120.97 21.9755 120.97 21.7875C120.97 21.6917 120.992 21.605 121.037 21.5276C121.085 21.4466 121.156 21.406 121.252 21.406H122.059C122.059 21.5719 122.071 21.7119 122.093 21.8262C122.115 21.9404 122.153 22.0326 122.209 22.1026C122.264 22.169 122.336 22.2169 122.424 22.2464C122.516 22.2758 122.633 22.2906 122.773 22.2906ZM134.438 23.728V29.4004H126.593V23.728H127.959V28.3887H129.833V23.728H131.198V28.3887H133.073V23.728H134.438ZM140.88 23.728V29.4004H139.514V26.0888C139.514 26.004 139.518 25.9118 139.525 25.8123C139.536 25.7091 139.549 25.6059 139.564 25.5027C139.49 25.6723 139.409 25.8215 139.32 25.9505C139.313 25.9579 139.276 26.0095 139.21 26.1053C139.144 26.1975 139.057 26.3173 138.95 26.4647C138.847 26.6121 138.729 26.7798 138.596 26.9678C138.464 27.1521 138.329 27.3401 138.193 27.5317C137.872 27.9851 137.509 28.4974 137.104 29.0687C137.052 29.1461 136.984 29.2216 136.899 29.2953C136.818 29.3691 136.724 29.4059 136.617 29.4059H135.782V23.7336H137.148V27.0452C137.148 27.13 137.142 27.224 137.131 27.3272C137.124 27.4267 137.113 27.528 137.098 27.6312C137.179 27.4506 137.26 27.3014 137.341 27.1834C137.345 27.176 137.38 27.1263 137.446 27.0341C137.513 26.942 137.597 26.8222 137.701 26.6748C137.807 26.5274 137.927 26.3615 138.06 26.1772C138.193 25.9892 138.327 25.7976 138.464 25.6022C138.784 25.1489 139.149 24.6366 139.558 24.0653C139.61 23.9842 139.678 23.9086 139.763 23.8386C139.848 23.7649 139.943 23.728 140.05 23.728H140.88ZM147.326 23.728V29.4004H145.96V26.0888C145.96 26.004 145.964 25.9118 145.972 25.8123C145.983 25.7091 145.995 25.6059 146.01 25.5027C145.936 25.6723 145.855 25.8215 145.767 25.9505C145.76 25.9579 145.723 26.0095 145.656 26.1053C145.59 26.1975 145.503 26.3173 145.397 26.4647C145.293 26.6121 145.175 26.7798 145.043 26.9678C144.91 27.1521 144.775 27.3401 144.639 27.5317C144.318 27.9851 143.955 28.4974 143.55 29.0687C143.498 29.1461 143.43 29.2216 143.345 29.2953C143.264 29.3691 143.17 29.4059 143.063 29.4059H142.229V23.7336H143.594V27.0452C143.594 27.13 143.589 27.224 143.578 27.3272C143.57 27.4267 143.559 27.528 143.544 27.6312C143.626 27.4506 143.707 27.3014 143.788 27.1834C143.791 27.176 143.826 27.1263 143.893 27.0341C143.959 26.942 144.044 26.8222 144.147 26.6748C144.254 26.5274 144.374 26.3615 144.506 26.1772C144.639 25.9892 144.774 25.7976 144.91 25.6022C145.231 25.1489 145.596 24.6366 146.005 24.0653C146.056 23.9842 146.124 23.9086 146.209 23.8386C146.294 23.7649 146.39 23.728 146.497 23.728H147.326ZM144.855 22.2906C144.991 22.2906 145.105 22.2758 145.197 22.2464C145.29 22.2169 145.363 22.169 145.419 22.1026C145.474 22.0326 145.513 21.9404 145.535 21.8262C145.557 21.7119 145.568 21.5719 145.568 21.406H146.375C146.471 21.406 146.541 21.4466 146.585 21.5276C146.633 21.605 146.657 21.6917 146.657 21.7875C146.657 21.9755 146.615 22.1468 146.53 22.3016C146.445 22.4528 146.323 22.5818 146.165 22.6887C146.007 22.7919 145.817 22.8729 145.596 22.9319C145.374 22.9872 145.127 23.0148 144.855 23.0148C144.582 23.0148 144.335 22.9872 144.114 22.9319C143.893 22.8729 143.703 22.7919 143.544 22.6887C143.386 22.5818 143.264 22.4528 143.18 22.3016C143.095 22.1468 143.052 21.9755 143.052 21.7875C143.052 21.6917 143.075 21.605 143.119 21.5276C143.167 21.4466 143.239 21.406 143.334 21.406H144.142C144.142 21.5719 144.153 21.7119 144.175 21.8262C144.197 21.9404 144.236 22.0326 144.291 22.1026C144.346 22.169 144.418 22.2169 144.506 22.2464C144.599 22.2758 144.715 22.2906 144.855 22.2906Z" fill="#2E384D"/>
<defs>
<linearGradient id="paint0_linear" x1="119.118" y1="9.54858" x2="129.19" y2="15.5936" gradientUnits="userSpaceOnUse">
<stop stop-color="#FF5B4D"/>
<stop offset="1" stop-color="#FF791A"/>
</linearGradient>
</defs>
</svg>
