<svg width="35" height="58" viewBox="0 0 35 58" fill="none" xmlns="http://www.w3.org/2000/svg">
<g opacity="0.4">
<path d="M14.6309 40.853C10.1123 40.3841 6.03806 39.2767 2.5499 36.562C2.11709 36.2243 1.67023 35.8987 1.27527 35.5215C-0.251489 34.0624 -0.405324 32.3914 0.802771 30.6693C1.83628 29.1956 3.5712 28.8014 5.37449 29.6475C5.72367 29.8116 6.05637 30.0163 6.37503 30.2362C12.8758 34.6808 21.8062 34.8035 28.3314 30.436C28.9778 29.9428 29.6689 29.5406 30.4698 29.3353C32.0271 28.9374 33.4794 29.5066 34.3151 30.8624C35.2698 32.4108 35.2576 33.9221 34.0813 35.1242C32.2768 36.9672 30.1066 38.3005 27.6953 39.2311C25.4152 40.1107 22.9178 40.5535 20.4461 40.8475C20.8191 41.2515 20.9949 41.4501 21.2281 41.6834C24.5844 45.0389 27.9553 48.3804 31.3006 51.7463C32.4404 52.8931 32.6784 54.3151 32.0509 55.6491C31.3647 57.1069 29.8288 58.0661 28.3228 57.9634C27.3687 57.8978 26.6245 57.4252 25.9634 56.7625C23.4306 54.2264 20.8502 51.7371 18.3687 49.1531C17.6465 48.4017 17.2992 48.5438 16.6619 49.1962C14.1138 51.8064 11.5242 54.3765 8.91942 56.932C7.74978 58.0794 6.35794 58.286 5.0015 57.6305C3.5596 56.935 2.64208 55.4705 2.71289 53.9986C2.76173 53.0031 3.25376 52.2425 3.94052 51.5604C7.26202 48.2601 10.5744 44.9514 13.8879 41.6457C14.1071 41.4258 14.3116 41.1926 14.6309 40.853Z" fill="white"/>
<path d="M17.3861 29.3571C9.325 29.3298 2.71496 22.6801 2.76197 14.6461C2.80836 6.52337 9.42267 -0.0224176 17.5631 5.77047e-05C25.7201 0.0219256 32.2672 6.66187 32.2263 14.869C32.1848 22.8866 25.529 29.385 17.3861 29.3571ZM24.7122 14.6655C24.6982 10.6764 21.5055 7.50074 17.5045 7.4971C13.47 7.49285 10.2486 10.7263 10.2798 14.7518C10.3097 18.7257 13.5298 21.8789 17.5418 21.8643C21.5415 21.8503 24.7256 18.654 24.7122 14.6655Z" fill="white"/>
</g>
</svg>
