<svg width="55" height="64" viewBox="0 0 55 64" fill="none" xmlns="http://www.w3.org/2000/svg">
<path opacity="0.2" d="M49 31L44 22L46 19.5L52 23.5L49 31Z" fill="url(#paint0_linear)"/>
<path opacity="0.2" d="M12 31L7 22L9 19.5L15 23.5L12 31Z" fill="url(#paint1_linear)"/>
<path opacity="0.2" d="M27.5 9.5V2H35V14.5H32.5C29.7386 14.5 27.5 12.2614 27.5 9.5Z" fill="url(#paint2_linear)"/>
<rect opacity="0.2" x="9" y="37" width="10" height="22" rx="2" fill="url(#paint3_linear)"/>
<rect opacity="0.2" x="44" y="44" width="10" height="15" rx="2" fill="url(#paint4_linear)"/>
<rect opacity="0.2" x="27" y="31" width="10" height="25" rx="2" fill="url(#paint5_linear)"/>
<path d="M53.7537 43.5771H37.4977V31.1113C37.4977 30.4209 36.9393 29.8613 36.2514 29.8613H18.7486C18.0602 29.8613 17.5023 30.4209 17.5023 31.1113V36.7192H1.2463C0.557916 36.7192 0 37.2788 0 37.9692V62.75C0 63.4404 0.557916 64 1.2463 64H53.7537C54.4421 64 55 63.4404 55 62.75V44.8271C55 44.1367 54.4421 43.5771 53.7537 43.5771ZM2.49261 39.2192H17.5023V61.5H2.49261V39.2192ZM19.9949 32.3613H35.0051V61.5H19.9949V32.3613ZM52.5074 61.5H37.4977V46.0771H52.5074V61.5Z" fill="url(#paint6_linear)"/>
<path d="M27.5002 39.0073C27.4194 39.0073 27.3366 38.999 27.2573 38.9824C27.1774 38.9663 27.0991 38.9423 27.0241 38.9111C26.9481 38.8798 26.8761 38.8413 26.8084 38.7963C26.7398 38.7514 26.6765 38.6987 26.619 38.6416C26.5616 38.5839 26.5095 38.519 26.4647 38.4511C26.4199 38.3823 26.381 38.31 26.3498 38.2353C26.3187 38.1601 26.2938 38.0815 26.2787 38.0014C26.2627 37.9199 26.2539 37.8388 26.2539 37.7578C26.2539 37.6752 26.2627 37.5937 26.2787 37.5126C26.2938 37.4326 26.3187 37.354 26.3498 37.2788C26.381 37.2041 26.4185 37.1313 26.4647 37.0629C26.5095 36.9951 26.5616 36.9316 26.619 36.874C26.6765 36.8149 26.7398 36.7636 26.8084 36.7177C26.8761 36.6728 26.9481 36.6337 27.0241 36.6025C27.0991 36.5712 27.1774 36.5478 27.2573 36.5317C27.4179 36.499 27.5825 36.499 27.7431 36.5317C27.823 36.5478 27.9014 36.5712 27.9773 36.6025C28.0523 36.6337 28.1243 36.6728 28.192 36.7177C28.2607 36.7636 28.3239 36.8149 28.3814 36.874C28.4388 36.9316 28.4909 36.9951 28.5357 37.0629C28.5805 37.1313 28.6195 37.2041 28.6506 37.2788C28.6818 37.354 28.7066 37.4326 28.7227 37.5126C28.7392 37.5937 28.7465 37.6752 28.7465 37.7578C28.7465 37.8388 28.7387 37.9199 28.7217 38.0014C28.7066 38.0815 28.6818 38.1601 28.6506 38.2353C28.6195 38.31 28.5805 38.3828 28.5357 38.4511C28.4909 38.5185 28.4388 38.5839 28.3814 38.6416C28.3239 38.6987 28.2607 38.7514 28.192 38.7963C28.1243 38.8413 28.0523 38.8798 27.9773 38.9111C27.9014 38.9423 27.823 38.9663 27.7431 38.9824C27.6633 38.9985 27.581 39.0073 27.5002 39.0073Z" fill="url(#paint7_linear)"/>
<path d="M27.5002 56.5123C26.8118 56.5123 26.2539 55.9523 26.2539 55.2623V42.423C26.2539 41.7325 26.8118 41.173 27.5002 41.173C28.1886 41.173 28.7465 41.7325 28.7465 42.423V55.2623C28.7465 55.9523 28.1886 56.5123 27.5002 56.5123Z" fill="url(#paint8_linear)"/>
<path d="M7.70724 56.5121C7.01885 56.5121 6.46094 55.952 6.46094 55.2621V50.1708C6.46094 49.4804 7.01885 48.9208 7.70724 48.9208C8.39563 48.9208 8.95355 49.4804 8.95355 50.1708V55.2621C8.95355 55.952 8.39563 56.5121 7.70724 56.5121Z" fill="url(#paint9_linear)"/>
<path d="M11.9885 56.5121C11.3001 56.5121 10.7422 55.952 10.7422 55.2621V50.1708C10.7422 49.4804 11.3001 48.9208 11.9885 48.9208C12.6764 48.9208 13.2348 49.4804 13.2348 50.1708V55.2621C13.2348 55.952 12.6769 56.5121 11.9885 56.5121Z" fill="url(#paint10_linear)"/>
<path d="M40.7736 56.5121C40.0853 56.5121 39.5273 55.952 39.5273 55.2621V50.1708C39.5273 49.4804 40.0853 48.9208 40.7736 48.9208C41.4615 48.9208 42.02 49.4804 42.02 50.1708V55.2621C42.02 55.952 41.462 56.5121 40.7736 56.5121Z" fill="url(#paint11_linear)"/>
<path d="M45.0041 56.5121C44.3162 56.5121 43.7578 55.952 43.7578 55.2621V50.1708C43.7578 49.4804 44.3162 48.9208 45.0041 48.9208C45.6925 48.9208 46.2504 49.4804 46.2504 50.1708V55.2621C46.2504 55.952 45.6925 56.5121 45.0041 56.5121Z" fill="url(#paint12_linear)"/>
<path d="M49.2346 56.5121C48.5467 56.5121 47.9883 55.952 47.9883 55.2621V50.1708C47.9883 49.4804 48.5467 48.9208 49.2346 48.9208C49.923 48.9208 50.4809 49.4804 50.4809 50.1708V55.2621C50.4809 55.952 49.923 56.5121 49.2346 56.5121Z" fill="url(#paint13_linear)"/>
<path d="M50.2588 32.734C50.0972 32.734 49.935 32.7027 49.7817 32.6388L45.9673 31.0533L42.1534 32.6388C41.7528 32.8053 41.2946 32.7511 40.9436 32.4952C40.5926 32.2399 40.3998 31.8194 40.4339 31.3858L40.7581 27.2579L38.0762 24.1095C37.7943 23.7784 37.7042 23.3248 37.8386 22.9112C37.9725 22.4972 38.3113 22.1832 38.7329 22.0816L42.7483 21.1158L44.9045 17.5846C45.1309 17.214 45.5335 16.9874 45.9673 16.9874C46.4011 16.9874 46.8037 17.214 47.0301 17.5846L49.1868 21.1158L53.2017 22.0816C53.6233 22.1832 53.9622 22.4972 54.0965 22.9112C54.2304 23.3248 54.1403 23.7784 53.8585 24.1095L51.1765 27.2579L51.5012 31.3858C51.5353 31.8194 51.342 32.2399 50.991 32.4952C50.7748 32.6529 50.5178 32.734 50.2588 32.734ZM45.9673 28.4503C46.1294 28.4503 46.2915 28.482 46.4444 28.5455L48.8562 29.5484L48.6508 26.9381C48.625 26.6075 48.7311 26.2799 48.9458 26.0279L50.6419 24.0372L48.1031 23.4264C47.7813 23.3487 47.5038 23.1466 47.3309 22.8634L45.9673 20.631L44.6042 22.8634C44.4313 23.1466 44.1534 23.3487 43.832 23.4264L41.2932 24.0372L42.9888 26.0279C43.204 26.2799 43.3102 26.6075 43.2839 26.9381L43.0789 29.5484L45.4907 28.5455C45.6431 28.482 45.8052 28.4503 45.9673 28.4503Z" fill="url(#paint14_linear)"/>
<path d="M4.74242 32.734C4.48342 32.734 4.22637 32.6529 4.00973 32.4952C3.65921 32.2399 3.46593 31.8194 3.50001 31.3859L3.82473 27.2579L1.14226 24.1095C0.860863 23.7784 0.770798 23.3248 0.904679 22.9112C1.03856 22.4972 1.3774 22.1832 1.799 22.0817L5.81444 21.1158L7.97113 17.5846C8.19751 17.214 8.60012 16.9874 9.03389 16.9874C9.46718 16.9874 9.86979 17.214 10.0962 17.5846L12.2529 21.1158L16.2678 22.0817C16.6899 22.1832 17.0287 22.4972 17.1626 22.9112C17.2965 23.3248 17.2064 23.7784 16.9246 24.1095L14.2426 27.2579L14.5673 31.3859C14.6014 31.8194 14.4086 32.2399 14.0576 32.4952C13.7066 32.7516 13.2484 32.8053 12.8478 32.6388L9.03341 31.0533L5.21952 32.6388C5.06617 32.7027 4.90356 32.734 4.74242 32.734ZM4.35928 24.0367L6.05542 26.0275C6.27012 26.2799 6.37625 26.6075 6.34996 26.9381L6.145 29.548L8.55679 28.5455C8.86204 28.4186 9.20526 28.4186 9.511 28.5455L11.9228 29.548L11.7173 26.9381C11.6915 26.607 11.7977 26.2799 12.0124 26.0275L13.708 24.0367L11.1692 23.4259C10.8479 23.3487 10.5699 23.1466 10.3975 22.8634L9.03389 20.631L7.67026 22.8634C7.49744 23.1466 7.21945 23.3487 6.89814 23.4259L4.35928 24.0367Z" fill="url(#paint15_linear)"/>
<path d="M40.8095 4.3457C40.5734 4.08105 40.236 3.92969 39.8816 3.92969H37.0541L37.3311 1.38623C37.37 1.0332 37.2566 0.680176 37.0205 0.415527C36.7839 0.151367 36.4465 0 36.0926 0H18.9062C18.5518 0 18.2144 0.151367 17.9778 0.416016C17.7417 0.680664 17.6288 1.03418 17.6677 1.3877L17.9481 3.92969H15.1172C14.7627 3.92969 14.4254 4.08105 14.1888 4.3457C13.9526 4.61084 13.8397 4.96387 13.8786 5.31738L14.3708 9.78125C14.5315 11.2319 15.1863 12.6021 16.2155 13.6401C17.1069 14.5391 18.2485 15.1582 19.4768 15.418C20.2504 17.4941 21.7932 19.1714 23.7439 20.126L23.1354 24.3511H22.742C22.0541 24.3511 21.4957 24.9111 21.4957 25.6011C21.4957 26.2915 22.0541 26.8511 22.742 26.8511H32.2568C32.9452 26.8511 33.5031 26.2915 33.5031 25.6011C33.5031 24.9111 32.9452 24.3511 32.2568 24.3511H31.8639L31.2558 20.1323C33.2139 19.1787 34.7625 17.4976 35.5376 15.4146C36.7605 15.1528 37.8958 14.5352 38.7833 13.6401C39.8125 12.6021 40.4673 11.2319 40.6279 9.78076L41.1201 5.31738C41.1591 4.96387 41.0461 4.61084 40.8095 4.3457ZM16.8484 9.50586L16.509 6.42969H18.2237L18.9004 12.5674C18.5649 12.3838 18.2553 12.1519 17.9827 11.8774C17.3498 11.2388 16.9467 10.3965 16.8484 9.50586ZM29.345 24.3511H25.6538L26.1528 20.8872C26.5944 20.9575 27.0466 20.9937 27.5067 20.9937C27.9619 20.9937 28.4093 20.958 28.846 20.8896L29.345 24.3511ZM27.5072 18.4937C24.4041 18.4937 21.8063 16.1646 21.4646 13.0762L20.2981 2.5H34.7022L33.5493 13.0742C33.2076 16.1641 30.6098 18.4937 27.5072 18.4937ZM38.1504 9.50488C38.0516 10.3965 37.649 11.2388 37.0161 11.877C36.7478 12.1475 36.4431 12.377 36.1135 12.5591L36.7814 6.42969H38.4898L38.1504 9.50488Z" fill="url(#paint16_linear)"/>
<defs>
<linearGradient id="paint0_linear" x1="43.9875" y1="25.25" x2="52.0212" y2="25.25" gradientUnits="userSpaceOnUse">
<stop stop-color="#FF5B4D"/>
<stop offset="1" stop-color="#FF791A"/>
</linearGradient>
<linearGradient id="paint1_linear" x1="6.98754" y1="25.25" x2="15.0212" y2="25.25" gradientUnits="userSpaceOnUse">
<stop stop-color="#FF5B4D"/>
<stop offset="1" stop-color="#FF791A"/>
</linearGradient>
<linearGradient id="paint2_linear" x1="27.4883" y1="8.25" x2="35.0198" y2="8.25" gradientUnits="userSpaceOnUse">
<stop stop-color="#FF5B4D"/>
<stop offset="1" stop-color="#FF791A"/>
</linearGradient>
<linearGradient id="paint3_linear" x1="14" y1="37" x2="14" y2="59" gradientUnits="userSpaceOnUse">
<stop stop-color="#4A75F8"/>
<stop offset="1" stop-color="#94AFFF"/>
</linearGradient>
<linearGradient id="paint4_linear" x1="49" y1="44" x2="49" y2="59" gradientUnits="userSpaceOnUse">
<stop stop-color="#4A75F8"/>
<stop offset="1" stop-color="#94AFFF"/>
</linearGradient>
<linearGradient id="paint5_linear" x1="32" y1="31" x2="32" y2="56" gradientUnits="userSpaceOnUse">
<stop stop-color="#4A75F8"/>
<stop offset="1" stop-color="#94AFFF"/>
</linearGradient>
<linearGradient id="paint6_linear" x1="27.5" y1="29.8613" x2="27.5" y2="64" gradientUnits="userSpaceOnUse">
<stop stop-color="#4A75F8"/>
<stop offset="1" stop-color="#94AFFF"/>
</linearGradient>
<linearGradient id="paint7_linear" x1="27.5002" y1="36.5072" x2="27.5002" y2="39.0073" gradientUnits="userSpaceOnUse">
<stop stop-color="#4A75F8"/>
<stop offset="1" stop-color="#94AFFF"/>
</linearGradient>
<linearGradient id="paint8_linear" x1="27.5002" y1="41.173" x2="27.5002" y2="56.5123" gradientUnits="userSpaceOnUse">
<stop stop-color="#4A75F8"/>
<stop offset="1" stop-color="#94AFFF"/>
</linearGradient>
<linearGradient id="paint9_linear" x1="7.70724" y1="48.9208" x2="7.70724" y2="56.5121" gradientUnits="userSpaceOnUse">
<stop stop-color="#4A75F8"/>
<stop offset="1" stop-color="#94AFFF"/>
</linearGradient>
<linearGradient id="paint10_linear" x1="11.9885" y1="48.9208" x2="11.9885" y2="56.5121" gradientUnits="userSpaceOnUse">
<stop stop-color="#4A75F8"/>
<stop offset="1" stop-color="#94AFFF"/>
</linearGradient>
<linearGradient id="paint11_linear" x1="40.7736" y1="48.9208" x2="40.7736" y2="56.5121" gradientUnits="userSpaceOnUse">
<stop stop-color="#4A75F8"/>
<stop offset="1" stop-color="#94AFFF"/>
</linearGradient>
<linearGradient id="paint12_linear" x1="45.0041" y1="48.9208" x2="45.0041" y2="56.5121" gradientUnits="userSpaceOnUse">
<stop stop-color="#4A75F8"/>
<stop offset="1" stop-color="#94AFFF"/>
</linearGradient>
<linearGradient id="paint13_linear" x1="49.2346" y1="48.9208" x2="49.2346" y2="56.5121" gradientUnits="userSpaceOnUse">
<stop stop-color="#4A75F8"/>
<stop offset="1" stop-color="#94AFFF"/>
</linearGradient>
<linearGradient id="paint14_linear" x1="37.7518" y1="24.8607" x2="54.2008" y2="24.8607" gradientUnits="userSpaceOnUse">
<stop stop-color="#FF5B4D"/>
<stop offset="1" stop-color="#FF791A"/>
</linearGradient>
<linearGradient id="paint15_linear" x1="0.818244" y1="24.8608" x2="17.2669" y2="24.8608" gradientUnits="userSpaceOnUse">
<stop stop-color="#FF5B4D"/>
<stop offset="1" stop-color="#FF791A"/>
</linearGradient>
<linearGradient id="paint16_linear" x1="13.8287" y1="13.4255" x2="41.1998" y2="13.4255" gradientUnits="userSpaceOnUse">
<stop stop-color="#FF5B4D"/>
<stop offset="1" stop-color="#FF791A"/>
</linearGradient>
</defs>
</svg>
