<svg width="86" height="67" viewBox="0 0 86 67" fill="none" xmlns="http://www.w3.org/2000/svg">
<g opacity="0.4">
<path d="M32.0838 71C28.3649 71 24.537 70.6962 20.6862 70.0873C13.9039 69.0138 7.03823 65.4352 5.09545 64.3636L0 61.5534L5.51668 59.7234C11.5471 57.7233 15.2155 56.4823 19.7565 54.5391C15.2096 52.3179 11.7052 48.3223 10.0183 43.1572L8.73496 39.2272L9.78739 39.3893C8.78942 38.3747 8.00142 37.3449 7.39057 36.4083C5.21815 33.0799 4.06796 29.0128 4.3127 25.5275L4.55415 22.0971L6.5901 22.8927C5.73123 21.2566 5.11054 19.5093 4.74574 17.6779C3.85669 13.2118 4.60073 8.46697 6.84139 4.31782L8.61489 1.03371L10.9868 3.90747C18.4882 12.9973 27.9895 18.3894 39.2663 19.968C38.8057 16.7653 39.1509 13.6744 40.2932 10.9039C41.6231 7.67804 43.9891 4.94261 47.1332 2.99279C50.6251 0.827878 54.8597 -0.221156 59.057 0.0389513C63.5101 0.314943 67.5531 1.99803 70.7642 4.90951C72.3323 4.49851 73.4877 4.0597 75.0493 3.46668C75.9889 3.10994 77.0544 2.70489 78.3877 2.24159L83.3007 0.534016L80.0969 9.76419C80.3081 9.74632 80.526 9.7311 80.7536 9.72117L86 9.48158L82.8992 13.7565C82.7214 14.0014 82.6761 14.0709 82.6131 14.1668C82.3631 14.5467 82.0521 15.0193 77.7958 20.7523C76.7303 22.1878 76.1982 24.0575 76.2973 26.0179C76.6745 33.4677 75.7684 40.208 73.6026 46.0509C71.5541 51.5786 68.3798 56.3215 64.1688 60.1476C58.9579 64.8812 52.3133 68.1223 44.4189 69.7795C40.5464 70.5923 36.3879 71 32.0838 71Z" fill="white"/>
</g>
</svg>
