<svg width="22" height="22" viewBox="0 0 22 22" fill="none" xmlns="http://www.w3.org/2000/svg">
<path fill-rule="evenodd" clip-rule="evenodd" d="M0.585938 18.5306C-0.195312 19.3233 -0.195312 20.6085 0.585938 21.4012C1.36719 22.1939 2.63477 22.1939 3.41406 21.4012L11 13.7041L18.5859 21.4054C19.3672 22.1982 20.6328 22.1982 21.4141 21.4054C22.1953 20.6126 22.1953 19.3272 21.4141 18.5343L13.8281 10.8337L21.0898 3.46503C21.8711 2.67237 21.8711 1.38718 21.0898 0.594521C20.3086 -0.198174 19.043 -0.198174 18.2617 0.594521L11 7.96293L3.74219 0.595039C2.96094 -0.197777 1.69531 -0.197777 0.914062 0.595039C0.132812 1.38786 0.132812 2.67326 0.914062 3.46607L8.17188 10.8334L0.585938 18.5306Z" fill="url(#paint0_linear)"/>
<defs>
<linearGradient id="paint0_linear" x1="-0.0342578" y1="11" x2="22.0582" y2="11" gradientUnits="userSpaceOnUse">
<stop stop-color="#FF5B4D"/>
<stop offset="1" stop-color="#FF791A"/>
</linearGradient>
</defs>
</svg>
